<?xml version="1.0" encoding="UTF-8"?>
<svg xmlns="http://www.w3.org/2000/svg" xmlns:xlink="http://www.w3.org/1999/xlink" width="503px" height="503px" viewBox="0 0 503px 465px" version="1.2" baseProfile="tiny-ps">
    <!-- Generator: Sketch 62 (91390) - https://sketch.com -->
    <title>Group 7</title>
    <desc>Created with Sketch.</desc>
    <g id="Version-2---Finalized---Logo-Only-(No-Background)" stroke="none" stroke-width="1" fill="none" fill-rule="evenodd">
        <g id="Group-7" transform="translate(-16.000000, -35.000000)">
            <g id="Group-6">
                <g id="Group-5">
                    <g id="Group-4">
                        <g id="Group-3">
                            <g id="Group-2">
                                <g id="1726810056602xtw3lmfc-stroke-and-fill" fill-rule="nonzero">
                                    <g id="Group" transform="translate(16.000000, 36.000000)" fill="#000000">
                                        <g id="p1-link" stroke="#15314A">
                                            <path d="M417.82,6.3 C442.77,13.79 465.37,27.87 481.54,48.47 C488.38,57.6 493.81,67.88 497.21,78.78 C502.81,95.89 502.8,115.18 499.81,132.79 C495.11,160.09 481.83,186.61 466.37,209.4 C455.75,225.37 443.98,240.44 431.62,255.1 C430.11,251.85 429.37,248.44 428.57,244.97 C427.2,239.42 426.07,233.8 424.43,228.33 C422.46,222.45 420.35,216.6 417.86,210.93 C417.08,209.18 416.25,207.44 415.43,205.71 C405.43,185.11 392.23,166.17 375.06,150.9 C365.36,141.62 354.5,133.51 343.08,126.47 C335.9,122.37 328.82,116.9 321.01,114.24 C308.72,120.65 297.09,128.59 286.33,137.32 C276.03,145.9 266.8,155.19 259.55,166.55 C254.97,174.14 251.26,182.98 251.65,192 C251.79,198.92 254.22,205.3 257.83,211.12 C263.15,219.55 269.86,226.18 276.98,233.03 C293.81,249.26 313.22,261.62 330.42,277.2 C339.44,285.09 347.53,293.88 354.07,303.94 C360.13,313.27 363.42,324.08 364.19,335.15 C364.57,346.82 362.5,358.41 356.61,368.62 C346.63,386.74 328.58,400.21 310.5,409.56 C288.22,421.23 264.64,426.77 240.04,431.21 C224.73,434.1 209.36,435.46 193.86,436.84 C191.51,437.01 189.15,437.14 186.8,437.35 C175.66,437.97 164.66,437.07 153.56,436.32 C152.47,435.72 151.38,435.11 150.28,434.51 C179.67,432.17 208.83,428.29 237.53,421.44 C252.64,417.77 267.32,413.7 281.68,407.68 C297.47,401.36 312.32,393.32 325.42,382.39 C333.25,375.99 340.37,367.9 344.72,358.72 C348.91,349.89 350.13,340.09 348.41,330.48 C346.43,319.03 340.6,309.51 333.31,300.68 C323.13,288.82 311.32,280.4 299.24,270.76 C287.15,261.47 274.79,251.8 263.93,241.09 C256.25,233.72 249.1,225.51 243.68,216.32 C238.01,206.52 235.27,195.26 237.29,183.99 C239.59,169.82 248.41,157.3 257.86,146.88 C264.4,138.96 272.05,132.43 279.89,125.85 C289.51,118.03 300.29,111.36 310.79,104.79 C318.17,100.25 325.6,95.83 333.43,92.12 C318.76,95.1 304.66,100.07 290.95,106.03 C267.26,116.89 244.01,131.04 225.18,149.19 C217.87,156.15 211.98,164.44 207.48,173.47 C202.91,182.68 200.38,192.66 201.54,202.99 C203.12,217.04 210.07,229.29 218.93,240.03 C226.06,248.83 234.37,255.72 242.57,263.42 C252.57,272.55 263.12,281.74 271.9,292.05 C279.02,300.95 285.69,311.59 288.28,322.79 C290.89,333.77 288.34,345.56 281.65,354.62 C274.35,364.62 262.98,371.58 252.19,377.26 C232.85,387.19 211.44,393.8 190.23,398.33 C169.1,402.64 147.57,404.92 126,405.05 C107.79,404.97 89.83,403.93 72.01,399.94 C52.88,395.73 32.56,388.8 18.65,374.35 C6.45,361.89 1.05,345.18 0.52,328 C-0.15,306.43 7.39,283.99 16.79,264.8 C22.32,253.05 29.02,242 36.19,231.19 C49.97,209.28 66.23,189.64 83.13,170.12 C108.33,142.29 135.51,116.32 164.72,92.73 C189.22,72.56 215.27,53.51 242.9,37.88 C273.89,20.4 306.56,7.14 342,2.23 C367.2,-1.13 393.26,-0.79 417.82,6.3 Z M300.76,45.06 C312.28,49.92 323.87,54.81 334.97,60.58 C335.9,74.54 337.48,88.38 337.07,102.41 C344.34,97.41 351.76,92.47 359.57,88.36 C365.46,95.01 371.49,101.54 377.23,108.31 C390.99,92 404.04,75.07 417.4,58.44 C425.42,48.11 434.1,37.91 441.37,27.07 C416.93,29.45 392.51,32.26 368.19,35.69 C345.7,38.62 323.17,41.61 300.76,45.06 Z M276.43,48.89 C276.08,50.15 275.72,51.41 275.35,52.66 C273.76,55.13 271.64,55.55 268.96,56.34 C270.92,57.14 273.12,57.82 274.85,59.07 C275.72,60.98 276.03,63.24 276.47,65.28 C277.17,63.21 277.7,60.77 279.01,59 C280.68,57.77 282.99,57.27 284.91,56.56 C283.06,55.96 281.1,55.44 279.35,54.58 C277.9,53.14 277.31,50.7 276.43,48.89 Z M246.86,61.08 C244.62,61.21 242.88,60.5 241.8,63 C240.67,65.85 244.27,68.43 246.69,66.7 C248.74,65.21 247.5,62.97 246.86,61.08 Z M444.01,90.01 C437.67,92.15 431.31,94.2 424.84,95.94 C431.27,97.56 437.58,99.55 443.93,101.46 C446.14,108.03 447.99,114.75 449.89,121.42 C451.92,114.97 453.06,107.99 455.73,101.78 C461.72,99.47 468.08,97.93 474.18,95.88 C468.11,93.68 461.34,92.39 455.59,89.53 C452.78,83.36 451.71,76.24 450.03,69.69 C447.7,76.35 446.38,83.34 444.01,90.01 Z M67.28,264.82 C65.21,287.41 67.75,310.15 74.51,331.79 C78.89,346.19 84.91,360.3 92.97,373.03 C96.5,378.35 100.08,383.65 104.02,388.68 C116.03,389.6 128.04,389.92 140.07,389.41 C159.68,388.78 178.92,385.54 198.01,381.15 C212.49,377.43 226.85,372.81 240.46,366.58 C250.11,361.94 259.89,356.1 267.22,348.19 C272.55,342.56 274.93,334.67 273.74,327.01 C272.19,317.58 267.43,309.8 261.51,302.49 C245.91,283.41 225.88,270.21 210.18,251.84 C198.64,238.51 188.86,223.78 187.08,205.77 C185.74,192.86 188.5,179.49 194.46,167.98 C198.85,159.7 203.65,152.03 210.73,145.75 C216.09,140.57 221.88,136.01 227.79,131.51 C242.02,120.94 258.3,112.9 274.54,105.89 C276.41,105.2 278.26,104.49 280.12,103.77 C273.32,102.58 266.47,102.43 259.62,101.74 C238.34,99.64 217.69,102.44 197.02,107.41 C191.76,108.8 186.5,110.43 181.5,112.61 C174.34,115.77 167.16,118.45 160.34,122.37 C151.97,127.24 144.64,133.1 136.93,138.89 C126.02,147.31 116.56,157.25 107.93,167.95 C85.27,195.38 70.74,229.35 67.28,264.82 Z M408.4,137.44 C405.14,138.47 402.75,141.49 403.1,145.01 C403.13,150.29 409.45,153.51 413.89,150.91 C418.05,148.45 418.38,142.26 415,139.02 C413.19,137.44 410.72,136.95 408.4,137.44 Z M466.31,157.24 C465.03,157.85 464.25,159.67 464.9,160.94 C465.68,163.31 469.22,163.74 470.48,161.51 C472.09,158.63 469.18,155.96 466.31,157.24 Z M439.49,197.47 C435.31,200.14 438.52,204.9 442.73,203.8 C446.48,201.54 443.21,195.91 439.49,197.47 Z M44.48,244.58 C43.18,244.96 42.68,246.02 42.13,247.14 C42.32,248.39 43.55,250.22 44.99,249.84 C47.01,249.93 49,247.36 47.25,245.74 C46.46,244.59 45.83,244.32 44.48,244.58 Z M37.24,272.93 C35.33,273.75 33.53,273.92 32.52,275.95 C32.63,278.85 35.3,280.7 37.77,278.73 C39.64,276.98 37.84,274.81 37.24,272.93 Z M34.97,332.68 C31.48,333.82 27.95,334.98 24.53,336.3 C27.97,337.39 31.43,338.37 34.92,339.29 C36.08,343.22 37.22,347.15 38.21,351.14 C39.32,347.29 40.55,343.48 41.61,339.62 C45.03,338.26 48.45,337.06 51.99,336.03 C48.62,335.06 45.27,334.07 41.96,332.9 C40.5,329.18 39.3,325.41 38.24,321.56 C37.31,325.31 36.29,329.04 34.97,332.68 Z" id="p1"/>
                                        </g>
                                        <g id="p2-link" transform="translate(300.000000, 27.000000)" stroke="#DBE7F3">
                                            <path d="M141.37,0.07 C134.1,10.91 125.42,21.11 117.4,31.44 C104.04,48.07 90.99,65 77.23,81.31 C71.49,74.54 65.46,68.01 59.57,61.36 C55.46,56.68 51.11,52.23 46.88,47.65 C61.86,40.1 76.51,31.94 91.58,24.57 C100.03,20.45 108.04,15.54 116.51,11.44 C122.81,8.52 128.43,5.04 135.12,3.05 C133.91,3.35 132.69,3.66 131.49,3.98 C122.85,6.9 114.34,10.18 105.5,12.58 C91.97,16.25 78.68,20.69 65.21,24.56 C55.07,27.4 45.19,30.98 34.97,33.58 C23.87,27.81 12.28,22.92 0.76,18.06 C23.17,14.61 45.7,11.62 68.19,8.69 C92.51,5.26 116.93,2.45 141.37,0.07 Z" id="p2"/>
                                        </g>
                                        <g id="p3-link" transform="translate(334.000000, 30.000000)" stroke="#7292BA">
                                            <path d="M97.49,0.98 C98.69,0.66 99.91,0.35 101.12,0.05 C94.43,2.04 88.81,5.52 82.51,8.44 C74.04,12.54 66.03,17.45 57.58,21.57 C42.51,28.94 27.86,37.1 12.88,44.65 C17.11,49.23 21.46,53.68 25.57,58.36 C17.76,62.47 10.34,67.41 3.07,72.41 C3.48,58.38 1.9,44.54 0.97,30.58 C11.19,27.98 21.07,24.4 31.21,21.56 C44.68,17.69 57.97,13.25 71.5,9.58 C80.34,7.18 88.85,3.9 97.49,0.98 Z" id="p3"/>
                                        </g>
                                        <g id="p4-link" transform="translate(268.000000, 48.000000)" stroke="#DBE7F3">
                                            <path d="M8.43,0.89 C9.31,2.7 9.9,5.14 11.35,6.58 C13.1,7.44 15.06,7.96 16.91,8.56 C14.99,9.27 12.68,9.77 11.01,11 C9.7,12.77 9.17,15.21 8.47,17.28 C8.03,15.24 7.72,12.98 6.85,11.07 C5.12,9.82 2.92,9.14 0.96,8.34 C3.64,7.55 5.76,7.13 7.35,4.66 C7.72,3.41 8.08,2.15 8.43,0.89 Z" id="p4"/>
                                        </g>
                                        <g id="p5-link" transform="translate(241.000000, 61.000000)" stroke="#DBE7F3">
                                            <path d="M5.86,0.08 C6.5,1.97 7.74,4.21 5.69,5.7 C3.27,7.43 -0.33,4.85 0.8,2 C1.88,-0.5 3.62,0.21 5.86,0.08 Z" id="p5"/>
                                        </g>
                                        <g id="p6-link" transform="translate(424.000000, 69.000000)" stroke="#DBE7F3">
                                            <path d="M26.03,0.69 C27.71,7.24 28.78,14.36 31.59,20.53 C37.34,23.39 44.11,24.68 50.18,26.88 C44.08,28.93 37.72,30.47 31.73,32.78 C29.06,38.99 27.92,45.97 25.89,52.42 C23.99,45.75 22.14,39.03 19.93,32.46 C13.58,30.55 7.27,28.56 0.84,26.94 C7.31,25.2 13.67,23.15 20.01,21.01 C22.38,14.34 23.7,7.35 26.03,0.69 Z" id="p6"/>
                                        </g>
                                        <g id="p7-link" transform="translate(67.000000, 101.000000)" stroke="#96AB47">
                                            <path d="M192.62,0.74 C193.27,1.61 193.93,2.48 194.59,3.35 C198.94,3.6 203.22,4.3 207.54,4.89 C191.3,11.9 175.02,19.94 160.79,30.51 C159.12,26.52 157.64,21.55 153.18,19.87 C150,19.25 146.69,19.24 143.47,18.74 C143.41,17.24 143.34,15.74 143.26,14.24 C147.39,9.88 153.3,10.26 157.32,5.82 C159.34,5.67 161.36,5.53 163.38,5.36 C161.96,4.66 160.5,4.01 159.01,3.5 C155.87,4.1 153.07,6.03 149.95,6.82 C147.76,7.55 145.19,7.71 143.55,9.41 C140.3,12.52 137.14,15.99 132.8,17.61 C127.45,18.96 121.4,18.08 116.17,16.55 C116.29,17.19 116.42,17.84 116.55,18.49 C115.44,18.55 114.33,18.61 113.22,18.68 C111.14,20.71 109.28,21.85 106.57,22.91 C103.56,26.74 99.27,29.99 97.29,34.37 C96.52,35.94 95.89,37.61 95.26,39.25 C103.01,35.38 104.87,26.19 112.59,23.3 C113.38,22.96 114.17,22.63 114.96,22.3 C120.08,23.72 125.25,24.75 130.21,26.71 C130.29,27.69 130.36,28.67 130.44,29.65 C131.93,29.68 133.42,29.73 134.91,29.75 C136.07,31.07 137.39,32.43 138.26,33.96 C138.75,36.25 137.84,38.91 137.43,41.2 C138.58,42.08 139.73,42.95 140.88,43.82 C140.31,45.13 139.74,46.45 139.17,47.76 C138.28,46.56 137.4,45.36 136.52,44.15 C133.55,45.28 130.75,46.65 128.16,48.5 C129.03,50.29 130.67,52.36 130.48,54.4 C128.51,55.35 126.3,52.11 124.75,51.05 C124.61,52.8 124.46,54.54 124.3,56.28 C125.15,56.43 126,56.58 126.84,56.72 C126.33,58.92 125.8,61.12 125.25,63.31 C122.5,61.55 120.47,59.15 118.24,56.83 C115.87,54.3 112.13,53.5 109.07,51.84 C109.29,50.05 110.91,49.73 112.26,48.86 C115.22,47.26 119.1,45.98 121.23,43.32 C123,41.24 124.47,38.87 125.96,36.58 C120.63,34.18 115.26,34.63 109.62,33.84 C110.29,32.67 110.97,31.5 111.64,30.33 C110.88,31.27 110.11,32.21 109.34,33.15 C107.44,33.72 105.54,34.31 103.64,34.91 C106.9,35.69 109.77,36.47 112.31,38.79 C110.51,39.53 108.67,40.19 106.93,41.05 C103.79,42.15 104.23,47.99 100.86,48.55 L99.13,47.99 C98.75,46.85 98.4,45.7 98.08,44.54 C97.51,44.51 96.93,44.48 96.36,44.46 C96.45,45.27 96.55,46.08 96.64,46.89 C98.74,48.54 100.22,50.06 101.4,52.52 C97.66,52.55 93.74,52.12 90.03,52.7 C86.11,53.52 82.31,55.9 78.74,57.68 C74.01,60.19 68.5,62.96 64.94,67.05 C63.1,69.26 65.49,72.61 67.85,73.2 C71.69,74.43 75.5,75.63 79.2,77.27 C79.68,80.16 80.58,82.63 79.29,85.47 C77.98,88.71 77.61,90.78 78.39,94.27 C79.4,93.71 80.47,93.16 81.41,92.48 C82.87,88.46 81.9,83.21 84.9,79.68 C88.6,75.93 93.28,74.09 98.39,73.13 C99.18,70 99.51,66.94 99.58,63.72 C101.37,61.58 103.21,59.47 105,57.33 C110,57.31 113.11,59.93 116.91,62.73 C116.65,66.11 115.5,69.1 114.05,72.13 C116.52,71.23 118.74,70.53 120.33,68.28 C122.08,65.99 123.72,64.94 126.37,63.87 C126.74,64.91 127.1,65.94 127.46,66.98 C121.5,78.49 118.74,91.86 120.08,104.77 C118.7,106.25 117.37,107.35 115.56,108.28 C115.52,105.83 115.52,103.38 115.51,100.93 C110.94,101.76 110.11,105.15 109.41,109.13 C109.73,110.48 111.16,110.99 112.22,111.66 C114.61,112.89 116.61,114.27 118.63,116.06 C114.24,119.68 109.15,120.39 103.78,121.55 C106.11,119.41 108.81,118.04 111.65,116.68 C104.43,113.23 96.98,117.05 90.65,120.55 C90.25,122.66 89.95,125.05 89.04,127 C86.3,127.83 82.75,127.72 80.41,129.39 C77.46,131.43 74.67,133.68 71.73,135.74 C71.5,138.45 71.66,141.81 70.21,144.16 C67.2,149.7 58.59,151.97 56.48,157.85 C56.79,160.6 57.72,163.29 57.94,166.02 C57.83,167.89 57.21,169.8 56.71,171.6 C56.09,171.61 55.46,171.62 54.84,171.62 C52.82,167.97 51,163.99 48.38,160.73 C46.15,157.94 42.31,157.87 39.07,157.34 C37.54,158.3 35.86,159.86 34.02,160.13 C30.86,160.5 27.59,160.28 24.41,160.23 C21.71,165.52 19.18,171.17 17.91,176.99 C17.65,181.54 19.03,186.38 20.71,190.59 C21.78,193.18 24.36,194.25 27.01,194.37 C29.1,193.62 31.18,192.34 32.55,190.57 C33.71,188.5 34.18,185.98 34.84,183.72 C37.81,182.74 40.57,182.42 43.69,182.5 C40.73,187.59 36.16,193.22 35.46,199.17 C38.73,201.06 43.45,200.02 47.12,200.78 C48.98,202.89 48.54,205.43 48.29,207.99 C47.73,211.77 47.3,215.52 47.31,219.34 C52.82,222.66 58.82,224.36 64.97,226.06 C68.01,221.73 72.23,219.6 76.96,217.56 C81.43,219.3 84.62,217.17 88.97,216.2 C90.86,219.87 93.08,223.53 97.7,223.62 C101.91,223.24 105.97,222.27 110.23,222.32 C111.43,224.97 112.43,228.38 114.58,230.4 C118.89,233.25 125.68,231.81 130.31,232.91 C134.36,234.76 136.94,239.84 139.93,243.06 C142.78,246.15 144.7,250.3 147.89,253 C151.18,253.85 154.96,253.43 158.22,254.53 C160.88,255.58 163.3,257.67 165.71,259.23 C168.15,260.87 170.76,261.85 173.48,262.92 C173.47,263.81 173.47,264.69 173.46,265.58 C159.85,271.81 145.49,276.43 131.01,280.15 C111.92,284.54 92.68,287.78 73.07,288.41 C69.65,282.19 65.2,276.62 60.47,271.36 C58.3,268.84 55.77,265.44 55.61,262 C55.53,258.57 58.93,255.41 59.44,252.08 C59.78,249.28 59.46,246.35 59.97,243.58 C60.67,241.75 62.65,240.33 63.98,238.99 C63.54,235.42 62.96,231.28 60.94,228.2 C59.27,226.39 56.99,225.08 55.03,223.59 C52.06,223.45 48.23,224.13 45.77,222.2 C42.05,219.74 40.35,214.77 37.18,211.53 C32.96,206.62 27.65,205.13 22.5,201.49 C17.05,197.64 11.43,195.34 7.33,190.41 C4.44,187.11 3.28,182.09 1.59,178.04 C-0.35,173.54 0.14,168.61 0.28,163.82 C3.74,128.35 18.27,94.38 40.93,66.95 C49.56,56.25 59.02,46.31 69.93,37.89 C77.64,32.1 84.97,26.24 93.34,21.37 C100.16,17.45 107.34,14.77 114.5,11.61 C119.5,9.43 124.76,7.8 130.02,6.41 C150.69,1.44 171.34,-1.36 192.62,0.74 Z M116.7,12.66 C121.86,16.48 126.56,17.27 132.67,15.09 C129.07,14.09 125.54,12.87 121.95,11.82 C120.34,11.29 118.3,12.33 116.7,12.66 Z M85.59,30.71 C86.5,31.8 87.42,32.88 88.32,33.98 C85.07,35.03 81.86,36.16 78.78,37.65 C84.2,37.24 88.49,34.55 93.06,31.85 C90.82,31.64 88.59,31.43 86.36,31.19 C89.62,29.68 93.06,28.56 96.28,26.97 C97.74,26.28 98.46,25.12 99.15,23.72 C97.29,23.44 96.2,23.68 94.61,24.65 C91.52,26.53 88.66,28.78 85.59,30.71 Z M102.39,98.61 C100.71,100.3 99.1,102.05 97.67,103.97 C101.34,103.04 104.58,101.08 108.16,99.96 C111.5,99.29 115.01,99.45 118.4,99.14 C112.95,96.93 107.99,98.18 102.39,98.61 Z M74.22,227.16 C75.33,227.29 76.45,227.42 77.57,227.55 C77.52,224.95 77.45,222.34 77.31,219.73 C75.98,222.12 74.94,224.53 74.22,227.16 Z M103.72,230.79 C104.95,232.06 106.18,233.32 107.41,234.6 C108.56,233.43 109.97,232.88 110.08,231.07 C109.24,229.81 108.23,228.72 107.17,227.64 C106,228.66 104.86,229.72 103.72,230.79 Z" id="p7"/>
                                        </g>
                                        <g id="p8-link" transform="translate(259.000000, 101.000000)" stroke="#7292BA">
                                            <path d="M0.62,0.74 C7.47,1.43 14.32,1.58 21.12,2.77 C19.26,3.49 17.41,4.2 15.54,4.89 C11.22,4.3 6.94,3.6 2.59,3.35 C1.93,2.48 1.27,1.61 0.62,0.74 Z" id="p8"/>
                                        </g>
                                        <g id="p9-link" transform="translate(131.000000, 104.000000)" stroke="#7292BA">
                                            <path d="M95.01,0.5 C96.5,1.01 97.96,1.66 99.38,2.36 C97.36,2.53 95.34,2.67 93.32,2.82 C89.3,7.26 83.39,6.88 79.26,11.24 C79.34,12.74 79.41,14.24 79.47,15.74 C82.69,16.24 86,16.25 89.18,16.87 C93.64,18.55 95.12,23.52 96.79,27.51 C90.88,32.01 85.09,36.57 79.73,41.75 C72.65,48.03 67.85,55.7 63.46,63.98 C63.1,62.94 62.74,61.91 62.37,60.87 C59.72,61.94 58.08,62.99 56.33,65.28 C54.74,67.53 52.52,68.23 50.05,69.13 C51.5,66.1 52.65,63.11 52.91,59.73 C49.11,56.93 46,54.31 41,54.33 C39.21,56.47 37.37,58.58 35.58,60.72 C35.51,63.94 35.18,67 34.39,70.13 C29.28,71.09 24.6,72.93 20.9,76.68 C17.9,80.21 18.87,85.46 17.41,89.48 C16.47,90.16 15.4,90.71 14.39,91.27 C13.61,87.78 13.98,85.71 15.29,82.47 C16.58,79.63 15.68,77.16 15.2,74.27 C11.5,72.63 7.69,71.43 3.85,70.2 C1.49,69.61 -0.9,66.26 0.94,64.05 C4.5,59.96 10.01,57.19 14.74,54.68 C18.31,52.9 22.11,50.52 26.03,49.7 C29.74,49.12 33.66,49.55 37.4,49.52 C36.22,47.06 34.74,45.54 32.64,43.89 C32.55,43.08 32.45,42.27 32.36,41.46 C32.93,41.48 33.51,41.51 34.08,41.54 C34.4,42.7 34.75,43.85 35.13,44.99 L36.86,45.55 C40.23,44.99 39.79,39.15 42.93,38.05 C44.67,37.19 46.51,36.53 48.31,35.79 C45.77,33.47 42.9,32.69 39.64,31.91 C41.54,31.31 43.44,30.72 45.34,30.15 C46.11,29.21 46.88,28.27 47.64,27.33 C46.97,28.5 46.29,29.67 45.62,30.84 C51.26,31.63 56.63,31.18 61.96,33.58 C60.47,35.87 59,38.24 57.23,40.32 C55.1,42.98 51.22,44.26 48.26,45.86 C46.91,46.73 45.29,47.05 45.07,48.84 C48.13,50.5 51.87,51.3 54.24,53.83 C56.47,56.15 58.5,58.55 61.25,60.31 C61.8,58.12 62.33,55.92 62.84,53.72 C62,53.58 61.15,53.43 60.3,53.28 C60.46,51.54 60.61,49.8 60.75,48.05 C62.3,49.11 64.51,52.35 66.48,51.4 C66.67,49.36 65.03,47.29 64.16,45.5 C66.75,43.65 69.55,42.28 72.52,41.15 C73.4,42.36 74.28,43.56 75.17,44.76 C75.74,43.45 76.31,42.13 76.88,40.82 C75.73,39.95 74.58,39.08 73.43,38.2 C73.84,35.91 74.75,33.25 74.26,30.96 C73.39,29.43 72.07,28.07 70.91,26.75 C69.42,26.73 67.93,26.68 66.44,26.65 C66.36,25.67 66.29,24.69 66.21,23.71 C61.25,21.75 56.08,20.72 50.96,19.3 C50.17,19.63 49.38,19.96 48.59,20.3 C40.87,23.19 39.01,32.38 31.26,36.25 C31.89,34.61 32.52,32.94 33.29,31.37 C35.27,26.99 39.56,23.74 42.57,19.91 C45.28,18.85 47.14,17.71 49.22,15.68 C50.33,15.61 51.44,15.55 52.55,15.49 C52.42,14.84 52.29,14.19 52.17,13.55 C57.4,15.08 63.45,15.96 68.8,14.61 C73.14,12.99 76.3,9.52 79.55,6.41 C81.19,4.71 83.76,4.55 85.95,3.82 C89.07,3.03 91.87,1.1 95.01,0.5 Z" id="p9"/>
                                        </g>
                                        <g id="p10-link" transform="translate(183.000000, 112.000000)" stroke="#7292BA">
                                            <path d="M5.95,0.82 C9.54,1.87 13.07,3.09 16.67,4.09 C10.56,6.27 5.86,5.48 0.7,1.66 C2.3,1.33 4.34,0.29 5.95,0.82 Z" id="p10"/>
                                        </g>
                                        <g id="p11-link" transform="translate(251.000000, 114.000000)" stroke="#7292BA">
                                            <path d="M70.01,0.24 C77.82,2.9 84.9,8.37 92.08,12.47 C91.12,13.15 90.18,13.83 89.25,14.53 C89.32,16.35 89.39,18.16 89.47,19.98 C90.9,22.08 93.16,24.43 93.56,27 C93.25,31.21 86.73,34.53 87.76,39.06 C88.92,42.69 91.69,45.91 94.54,48.37 C97.46,51.14 102.33,50.87 106.14,51.54 C105.57,52.74 105.01,53.94 104.45,55.14 C106.38,56.92 108.44,58.54 110.56,60.09 C108.54,63.52 107.72,66.35 107.33,70.33 C105.02,71.86 102.92,73.37 101.48,75.8 C99.21,79.52 95.82,81.4 92.74,84.36 C96.46,86.98 100.6,89.15 104.06,92.1 C104.82,94.04 103.99,96.65 103.8,98.68 C98.46,98.4 93.19,98.43 87.93,99.52 C89.07,102.46 90.41,105.33 91.52,108.28 C92.59,111.16 92.24,114.73 92.21,117.77 C95.59,119.57 98.61,120.56 102.39,121.15 C102.26,122.48 102.2,123.85 101.9,125.16 C100.29,127.17 97.76,128.58 95.69,130.07 C95.64,133.63 95.64,137.19 95.64,140.75 C93.45,142.93 91.27,145.11 89.11,147.32 C87.68,147.44 86.25,147.55 84.82,147.66 C81.91,152.56 81.14,157.86 79.42,163.2 C62.22,147.62 42.81,135.26 25.98,119.03 C18.86,112.18 12.15,105.55 6.83,97.12 C3.22,91.3 0.79,84.92 0.65,78 C0.26,68.98 3.97,60.14 8.55,52.55 C15.8,41.19 25.03,31.9 35.33,23.32 C46.09,14.59 57.72,6.65 70.01,0.24 Z M32.34,31.09 C32.31,32.57 32.29,34.05 32.27,35.53 C34.81,37.08 37.86,39.65 40.97,39.49 C44.83,39.61 47.9,38.07 51.32,36.57 C50.95,35.26 50.54,33.97 50.11,32.69 C44.18,32.08 38.24,32.05 32.34,31.09 Z M77.06,56.28 C79.47,58.88 81.77,60.73 85.05,62.17 C85.25,66.93 88.24,69.85 86.58,74.35 C87.22,75.16 87.86,75.98 88.5,76.79 C93.11,76.61 97.36,75.72 100.71,72.29 C100.54,70.55 100.87,68.99 99.18,67.96 C94.03,64.43 89.3,60.52 84.69,56.31 C83.09,54.79 82.11,53.01 80.87,51.2 C79.89,51.39 78.9,51.59 77.94,51.91 C77.6,53.36 77.31,54.81 77.06,56.28 Z M78.57,74.1 C80.56,72.83 82.55,71.56 84.54,70.29 C84.55,68.34 84.56,66.4 84.57,64.46 C81.13,64.35 77.9,64.12 74.48,64.77 C74.27,68.67 76.47,71.13 78.57,74.1 Z" id="p11"/>
                                        </g>
                                        <g id="p12-link" transform="translate(145.000000, 124.000000)" stroke="#7292BA">
                                            <path d="M21.15,0.72 C20.46,2.12 19.74,3.28 18.28,3.97 C15.06,5.56 11.62,6.68 8.36,8.19 C10.59,8.43 12.82,8.64 15.06,8.85 C10.49,11.55 6.2,14.24 0.78,14.65 C3.86,13.16 7.07,12.03 10.32,10.98 C9.42,9.88 8.5,8.8 7.59,7.71 C10.66,5.78 13.52,3.53 16.61,1.65 C18.2,0.68 19.29,0.44 21.15,0.72 Z" id="p12"/>
                                        </g>
                                        <g id="p13-link" transform="translate(330.000000, 126.000000)" stroke="#96AB47">
                                            <path d="M13.08,0.47 C24.5,7.51 35.36,15.62 45.06,24.9 C62.23,40.17 75.43,59.11 85.43,79.71 L85.47,82.04 C84.84,82.72 84.2,83.39 83.55,84.06 C83.24,88.27 83.38,92.1 85.23,95.97 C84.96,97.29 84.72,98.61 84.47,99.93 C86.38,101.18 87.98,102.6 89.54,104.27 C87.85,104.43 86.15,104.57 84.45,104.69 C82.23,101.46 79.79,98.54 76.86,95.93 C76.64,95.25 76.41,94.57 76.18,93.89 C74.65,92.45 73.12,90.01 71.04,89.44 C69.95,93.85 69.25,98.37 68.29,102.82 C66.79,103 65.52,103.19 64.07,102.6 C65.1,100.97 66.4,99.49 67.63,98.01 C67.32,94.8 66.82,91.62 66.27,88.44 C68.18,87.67 70.09,86.89 72.01,86.13 C68.23,83.9 64.35,81.82 61.02,78.98 C58.52,76.84 56.09,74.66 53.4,72.76 C53.4,73.92 53.41,75.09 53.43,76.25 C56.99,80.51 61.18,84.57 64.11,89.27 C62.39,89.44 61.11,89.41 59.73,88.24 C56.96,86.1 54.55,83.46 52.02,81.04 C51.22,81.77 50.42,82.5 49.61,83.23 C46.5,83.98 43.63,83.66 41.63,86.53 C39.3,89.62 36.22,92.43 34.49,95.89 C34.45,98.35 35.04,100.89 35.47,103.31 C33.03,105.1 31.21,106.87 29.6,109.47 C31.09,109.46 32.57,109.45 34.05,109.44 C38.39,106.42 42.8,104.13 48.02,103.06 C51.83,102.25 56.38,99.57 60.19,100.78 C61.96,103.03 61.37,106.76 61.48,109.46 C65.79,112.49 70.08,115.54 74.27,118.75 C76.23,120.33 78.45,120.56 80.84,120.99 C80.58,119.09 80.3,117.19 80.02,115.29 C86.08,114.28 92.51,117.89 98.57,118.97 C99.37,122.44 100.11,125.85 101.62,129.1 C101.32,132.45 102,135.71 102.4,139.01 C103.43,147.35 103.41,155.62 103.19,164 C102.23,188.23 95.46,211.34 85.19,233.18 C73.53,256.55 56.86,277.61 36.59,294.09 C36.08,293.08 35.63,292.05 35.23,291 C36.64,286.26 40.48,282.26 42.67,277.81 C45.36,272.9 45.11,267.63 48,262.86 C52.07,255.62 60.14,250.73 62.91,243.02 C64.27,239.23 63.33,235.91 61.74,232.41 C60.44,229.87 61.33,227.69 61.2,224.97 C61,223.22 60.28,221.49 59.7,219.83 C61.71,215.66 62.7,212.19 62.9,207.51 C58.3,206.19 53.73,204.16 48.98,203.48 C46.78,204.14 45.01,205.92 42.89,206.71 C39.9,207.38 36.97,207.78 34.19,209.15 C33.42,198.08 30.13,187.27 24.07,177.94 C17.53,167.88 9.44,159.09 0.42,151.2 C2.14,145.86 2.91,140.56 5.82,135.66 C7.25,135.55 8.68,135.44 10.11,135.32 C12.27,133.11 14.45,130.93 16.64,128.75 C16.64,125.19 16.64,121.63 16.69,118.07 C18.76,116.58 21.29,115.17 22.9,113.16 C23.2,111.85 23.26,110.48 23.39,109.15 C19.61,108.56 16.59,107.57 13.21,105.77 C13.24,102.73 13.59,99.16 12.52,96.28 C11.41,93.33 10.07,90.46 8.93,87.52 C14.19,86.43 19.46,86.4 24.8,86.68 C24.99,84.65 25.82,82.04 25.06,80.1 C21.6,77.15 17.46,74.98 13.74,72.36 C16.82,69.4 20.21,67.52 22.48,63.8 C23.92,61.37 26.02,59.86 28.33,58.33 C28.72,54.35 29.54,51.52 31.56,48.09 C29.44,46.54 27.38,44.92 25.45,43.14 C26.01,41.94 26.57,40.74 27.14,39.54 C23.33,38.87 18.46,39.14 15.54,36.37 C12.69,33.91 9.92,30.69 8.76,27.06 C7.73,22.53 14.25,19.21 14.56,15 C14.16,12.43 11.9,10.08 10.47,7.98 C10.39,6.16 10.32,4.35 10.25,2.53 C11.18,1.83 12.12,1.15 13.08,0.47 Z M27.23,12.82 C26.83,18.45 29.65,22.4 32.03,27.19 C34.14,31.14 37.44,33.43 40.88,36.11 C39.8,37.89 38.73,39.66 37.64,41.43 C38.05,42.17 38.46,42.91 38.87,43.66 C40.17,43.57 41.47,43.48 42.77,43.39 C42.16,45.61 41.56,47.83 40.97,50.05 C42.85,49.56 44.72,49.07 46.6,48.58 C46.56,47.39 46.53,46.21 46.5,45.02 C47.26,44.15 48.08,43.28 48.73,42.31 C47.48,40.84 45.99,39.52 44.58,38.2 C44.46,36.97 44.33,35.74 44.21,34.52 C46.57,34.27 48.95,34.25 51.27,33.86 C49.34,33.74 47.42,33.64 45.49,33.52 C45.5,32.14 45.51,30.76 45.51,29.38 C44.18,29.34 42.84,29.29 41.5,29.25 C41.12,30.39 40.75,31.52 40.37,32.65 C37.81,30.54 35.28,28.38 32.84,26.12 C32.72,23.98 32.83,21.65 32.23,19.58 C31.14,17.06 29.02,14.87 27.23,12.82 Z M26.86,37.32 C29.35,42.17 32.7,46.37 36.72,50.04 C36.12,50.82 35.51,51.61 34.91,52.4 C37.02,52.48 39.13,52.54 41.23,52.6 C37.29,47.7 33.26,43.1 30.18,37.57 C29.08,37.46 27.97,37.37 26.86,37.32 Z" id="p13"/>
                                        </g>
                                        <g id="p14-link" transform="translate(403.000000, 137.000000)" stroke="#DBE7F3">
                                            <path d="M5.4,0.44 C7.72,-0.05 10.19,0.44 12,2.02 C15.38,5.26 15.05,11.45 10.89,13.91 C6.45,16.51 0.13,13.29 0.1,8.01 C-0.25,4.49 2.14,1.47 5.4,0.44 Z" id="p14"/>
                                        </g>
                                        <g id="p15-link" transform="translate(357.000000, 138.000000)" stroke="#7292BA">
                                            <path d="M0.23,0.82 C2.02,2.87 4.14,5.06 5.23,7.58 C5.83,9.65 5.72,11.98 5.84,14.12 C8.28,16.38 10.81,18.54 13.37,20.65 C13.75,19.52 14.12,18.39 14.5,17.25 C15.84,17.29 17.18,17.34 18.51,17.38 C18.51,18.76 18.5,20.14 18.49,21.52 C20.42,21.64 22.34,21.74 24.27,21.86 C21.95,22.25 19.57,22.27 17.21,22.52 C17.33,23.74 17.46,24.97 17.58,26.2 C18.99,27.52 20.48,28.84 21.73,30.31 C21.08,31.28 20.26,32.15 19.5,33.02 C19.53,34.21 19.56,35.39 19.6,36.58 C17.72,37.07 15.85,37.56 13.97,38.05 C14.56,35.83 15.16,33.61 15.77,31.39 C14.47,31.48 13.17,31.57 11.87,31.66 C11.46,30.91 11.05,30.17 10.64,29.43 C11.73,27.66 12.8,25.89 13.88,24.11 C10.44,21.43 7.14,19.14 5.03,15.19 C2.65,10.4 -0.17,6.45 0.23,0.82 Z" id="p15"/>
                                        </g>
                                        <g id="p16-link" transform="translate(283.000000, 145.000000)" stroke="#96AB47">
                                            <path d="M0.34,0.09 C6.24,1.05 12.18,1.08 18.11,1.69 C18.54,2.97 18.95,4.26 19.32,5.57 C15.9,7.07 12.83,8.61 8.97,8.49 C5.86,8.65 2.81,6.08 0.27,4.53 C0.29,3.05 0.31,1.57 0.34,0.09 Z" id="p16"/>
                                        </g>
                                        <g id="p17-link" transform="translate(464.000000, 156.000000)" stroke="#DBE7F3">
                                            <path d="M2.31,1.24 C5.18,-0.04 8.09,2.63 6.48,5.51 C5.22,7.74 1.68,7.31 0.9,4.94 C0.25,3.67 1.03,1.85 2.31,1.24 Z" id="p17"/>
                                        </g>
                                        <g id="p18-link" transform="translate(356.000000, 163.000000)" stroke="#7292BA">
                                            <path d="M4.18,0.57 C7.26,6.1 11.29,10.7 15.23,15.6 C13.13,15.54 11.02,15.48 8.91,15.4 C9.51,14.61 10.12,13.82 10.72,13.04 C6.7,9.37 3.35,5.17 0.86,0.32 C1.97,0.37 3.08,0.46 4.18,0.57 Z" id="p18"/>
                                        </g>
                                        <g id="p19-link" transform="translate(328.000000, 165.000000)" stroke="#96AB47">
                                            <path d="M3.87,0.2 C5.11,2.01 6.09,3.79 7.69,5.31 C12.3,9.52 17.03,13.43 22.18,16.96 C23.87,17.99 23.54,19.55 23.71,21.29 C20.36,24.72 16.11,25.61 11.5,25.79 C10.86,24.98 10.22,24.16 9.58,23.35 C11.24,18.85 8.25,15.93 8.05,11.17 C4.77,9.73 2.47,7.88 0.06,5.28 C0.31,3.81 0.6,2.36 0.94,0.91 C1.9,0.59 2.89,0.39 3.87,0.2 Z" id="p19"/>
                                        </g>
                                        <g id="p20-link" transform="translate(325.000000, 178.000000)" stroke="#96AB47">
                                            <path d="M10.57,0.46 C10.56,2.4 10.55,4.34 10.54,6.29 C8.55,7.56 6.56,8.83 4.57,10.1 C2.47,7.13 0.27,4.67 0.48,0.77 C3.9,0.12 7.13,0.35 10.57,0.46 Z" id="p20"/>
                                        </g>
                                        <g id="p21-link" transform="translate(437.000000, 197.000000)" stroke="#DBE7F3">
                                            <path d="M2.49,0.47 C6.21,-1.09 9.48,4.54 5.73,6.8 C1.52,7.9 -1.69,3.14 2.49,0.47 Z" id="p21"/>
                                        </g>
                                        <g id="p22-link" transform="translate(164.000000, 198.000000)" stroke="#7292BA">
                                            <path d="M21.4,2.14 C18.01,2.45 14.5,2.29 11.16,2.96 C7.58,4.08 4.34,6.04 0.67,6.97 C2.1,5.05 3.71,3.3 5.39,1.61 C10.99,1.18 15.95,-0.07 21.4,2.14 Z" id="p22"/>
                                        </g>
                                        <g id="p23-link" transform="translate(359.000000, 198.000000)" stroke="#7292BA">
                                            <path d="M24.4,0.76 C27.09,2.66 29.52,4.84 32.02,6.98 C35.35,9.82 39.23,11.9 43.01,14.13 C41.09,14.89 39.18,15.67 37.27,16.44 C37.82,19.62 38.32,22.8 38.63,26.01 C37.4,27.49 36.1,28.97 35.07,30.6 C36.52,31.19 37.79,31 39.29,30.82 C40.25,26.37 40.95,21.85 42.04,17.44 C44.12,18.01 45.65,20.45 47.18,21.89 C47.41,22.57 47.64,23.25 47.86,23.93 C50.79,26.54 53.23,29.46 55.45,32.69 C57.15,32.57 58.85,32.43 60.54,32.27 C58.98,30.6 57.38,29.18 55.47,27.93 C55.72,26.61 55.96,25.29 56.23,23.97 C54.38,20.1 54.24,16.27 54.55,12.06 C55.2,11.39 55.84,10.72 56.47,10.04 L56.43,7.71 C57.25,9.44 58.08,11.18 58.86,12.93 C57.99,14.49 56.75,16.16 56.41,17.93 C56.41,20.64 57.29,23.48 57.92,26.1 C59.53,27.62 61.13,29.16 62.72,30.71 C63.63,30.58 64.53,30.45 65.43,30.33 C67.07,35.8 68.2,41.42 69.57,46.97 C63.51,45.89 57.08,42.28 51.02,43.29 C51.3,45.19 51.58,47.09 51.84,48.99 C49.45,48.56 47.23,48.33 45.27,46.75 C41.08,43.54 36.79,40.49 32.48,37.46 C32.37,34.76 32.96,31.03 31.19,28.78 C27.38,27.57 22.83,30.25 19.02,31.06 C13.8,32.13 9.39,34.42 5.05,37.44 C3.57,37.45 2.09,37.46 0.6,37.47 C2.21,34.87 4.03,33.1 6.47,31.31 C6.04,28.89 5.45,26.35 5.49,23.89 C7.22,20.43 10.3,17.62 12.63,14.53 C14.63,11.66 17.5,11.98 20.61,11.23 C21.42,10.5 22.22,9.77 23.02,9.04 C25.55,11.46 27.96,14.1 30.73,16.24 C32.11,17.41 33.39,17.44 35.11,17.27 C32.18,12.57 27.99,8.51 24.43,4.25 C24.41,3.09 24.4,1.92 24.4,0.76 Z M19.01,15.42 C20.96,17.79 23.14,19.98 25.31,22.14 C25.87,20.89 26.44,19.65 27.01,18.42 C25.34,17.4 23.63,16.34 21.88,15.45 C20.93,15.42 19.97,15.41 19.01,15.42 Z" id="p23"/>
                                        </g>
                                        <g id="p24-link" transform="translate(84.000000, 201.000000)" stroke="#7292BA">
                                            <path d="M98.51,0.93 C98.52,3.38 98.52,5.83 98.56,8.28 C100.37,7.35 101.7,6.25 103.08,4.77 C104.86,22.78 114.64,37.51 126.18,50.84 C141.88,69.21 161.91,82.41 177.51,101.49 C183.43,108.8 188.19,116.58 189.74,126.01 C190.93,133.67 188.55,141.56 183.22,147.19 C175.89,155.1 166.11,160.94 156.46,165.58 C156.47,164.69 156.47,163.81 156.48,162.92 C153.76,161.85 151.15,160.87 148.71,159.23 C146.3,157.67 143.88,155.58 141.22,154.53 C137.96,153.43 134.18,153.85 130.89,153 C127.7,150.3 125.78,146.15 122.93,143.06 C119.94,139.84 117.36,134.76 113.31,132.91 C108.68,131.81 101.89,133.25 97.58,130.4 C95.43,128.38 94.43,124.97 93.23,122.32 C88.97,122.27 84.91,123.24 80.7,123.62 C76.08,123.53 73.86,119.87 71.97,116.2 C67.62,117.17 64.43,119.3 59.96,117.56 C55.23,119.6 51.01,121.73 47.97,126.06 C41.82,124.36 35.82,122.66 30.31,119.34 C30.3,115.52 30.73,111.77 31.29,107.99 C31.54,105.43 31.98,102.89 30.12,100.78 C26.45,100.02 21.73,101.06 18.46,99.17 C19.16,93.22 23.73,87.59 26.69,82.5 C23.57,82.42 20.81,82.74 17.84,83.72 C17.18,85.98 16.71,88.5 15.55,90.57 C14.18,92.34 12.1,93.62 10.01,94.37 C7.36,94.25 4.78,93.18 3.71,90.59 C2.03,86.38 0.65,81.54 0.91,76.99 C2.18,71.17 4.71,65.52 7.41,60.23 C10.59,60.28 13.86,60.5 17.02,60.13 C18.86,59.86 20.54,58.3 22.07,57.34 C25.31,57.87 29.15,57.94 31.38,60.73 C34,63.99 35.82,67.97 37.84,71.62 C38.46,71.62 39.09,71.61 39.71,71.6 C40.21,69.8 40.83,67.89 40.94,66.02 C40.72,63.29 39.79,60.6 39.48,57.85 C41.59,51.97 50.2,49.7 53.21,44.16 C54.66,41.81 54.5,38.45 54.73,35.74 C57.67,33.68 60.46,31.43 63.41,29.39 C65.75,27.72 69.3,27.83 72.04,27 C72.95,25.05 73.25,22.66 73.65,20.55 C79.98,17.05 87.43,13.23 94.65,16.68 C91.81,18.04 89.11,19.41 86.78,21.55 C92.15,20.39 97.24,19.68 101.63,16.06 C99.61,14.27 97.61,12.89 95.22,11.66 C94.16,10.99 92.73,10.48 92.41,9.13 C93.11,5.15 93.94,1.76 98.51,0.93 Z M50.36,86.45 C50.61,88.89 50.92,91.33 51.28,93.76 C53.27,93.67 55.26,93.56 57.25,93.46 C55.42,90.45 53.69,87.92 50.36,86.45 Z" id="p24"/>
                                        </g>
                                        <g id="p25-link" transform="translate(415.000000, 210.000000)" stroke="#96AB47">
                                            <path d="M2.86,0.93 C5.35,6.6 7.46,12.45 9.43,18.33 C8.53,18.45 7.63,18.58 6.72,18.71 C5.13,17.16 3.53,15.62 1.92,14.1 C1.29,11.48 0.41,8.64 0.41,5.93 C0.75,4.16 1.99,2.49 2.86,0.93 Z" id="p25"/>
                                        </g>
                                        <g id="p26-link" transform="translate(378.000000, 213.000000)" stroke="#96AB47">
                                            <path d="M2.88,0.45 C4.63,1.34 6.34,2.4 8.01,3.42 C7.44,4.65 6.87,5.89 6.31,7.14 C4.14,4.98 1.96,2.79 0.01,0.42 C0.97,0.41 1.93,0.42 2.88,0.45 Z" id="p26"/>
                                        </g>
                                        <g id="p27-link" transform="translate(42.000000, 244.000000)" stroke="#DBE7F3">
                                            <path d="M2.48,0.58 C3.83,0.32 4.46,0.59 5.25,1.74 C7,3.36 5.01,5.93 2.99,5.84 C1.55,6.22 0.32,4.39 0.13,3.14 C0.68,2.02 1.18,0.96 2.48,0.58 Z" id="p27"/>
                                        </g>
                                        <g id="p28-link" transform="translate(66.000000, 264.000000)" stroke="#7292BA">
                                            <path d="M1.28,0.82 C1.14,5.61 0.65,10.54 2.59,15.04 C4.28,19.09 5.44,24.11 8.33,27.41 C12.43,32.34 18.05,34.64 23.5,38.49 C28.65,42.13 33.96,43.62 38.18,48.53 C41.35,51.77 43.05,56.74 46.77,59.2 C49.23,61.13 53.06,60.45 56.03,60.59 C57.99,62.08 60.27,63.39 61.94,65.2 C63.96,68.28 64.54,72.42 64.98,75.99 C63.65,77.33 61.67,78.75 60.97,80.58 C60.46,83.35 60.78,86.28 60.44,89.08 C59.93,92.41 56.53,95.57 56.61,99 C56.77,102.44 59.3,105.84 61.47,108.36 C66.2,113.62 70.65,119.19 74.07,125.41 C62.04,125.92 50.03,125.6 38.02,124.68 C34.08,119.65 30.5,114.35 26.97,109.03 C18.91,96.3 12.89,82.19 8.51,67.79 C1.75,46.15 -0.79,23.41 1.28,0.82 Z" id="p28"/>
                                        </g>
                                        <g id="p29-link" transform="translate(32.000000, 272.000000)" stroke="#DBE7F3">
                                            <path d="M5.24,0.93 C5.84,2.81 7.64,4.98 5.77,6.73 C3.3,8.7 0.63,6.85 0.52,3.95 C1.53,1.92 3.33,1.75 5.24,0.93 Z" id="p29"/>
                                        </g>
                                        <g id="p30-link" transform="translate(134.000000, 287.000000)" stroke="#96AB47">
                                            <path d="M0.36,0.45 C3.69,1.92 5.42,4.45 7.25,7.46 C5.26,7.56 3.27,7.67 1.28,7.76 C0.92,5.33 0.61,2.89 0.36,0.45 Z" id="p30"/>
                                        </g>
                                        <g id="p31-link" transform="translate(141.000000, 320.000000)" stroke="#7292BA">
                                            <path d="M3.31,0.73 C3.45,3.34 3.52,5.95 3.57,8.55 C2.45,8.42 1.33,8.29 0.22,8.16 C0.94,5.53 1.98,3.12 3.31,0.73 Z" id="p31"/>
                                        </g>
                                        <g id="p32-link" transform="translate(24.000000, 321.000000)" stroke="#DBE7F3">
                                            <path d="M14.24,0.56 C15.3,4.41 16.5,8.18 17.96,11.9 C21.27,13.07 24.62,14.06 27.99,15.03 C24.45,16.06 21.03,17.26 17.61,18.62 C16.55,22.48 15.32,26.29 14.21,30.14 C13.22,26.15 12.08,22.22 10.92,18.29 C7.43,17.37 3.97,16.39 0.53,15.3 C3.95,13.98 7.48,12.82 10.97,11.68 C12.29,8.04 13.31,4.31 14.24,0.56 Z" id="p32"/>
                                        </g>
                                        <g id="p33-link" transform="translate(170.000000, 328.000000)" stroke="#96AB47">
                                            <path d="M4.17,0.64 C5.23,1.72 6.24,2.81 7.08,4.07 C6.97,5.88 5.56,6.43 4.41,7.6 C3.18,6.32 1.95,5.06 0.72,3.79 C1.86,2.72 3,1.66 4.17,0.64 Z" id="p33"/>
                                        </g>
                                        <g id="p34-link" transform="translate(193.000000, 329.000000)" stroke="#7292BA">
                                            <path d="M185.98,0.48 C190.73,1.16 195.3,3.19 199.9,4.51 C199.7,9.19 198.71,12.66 196.7,16.83 C197.28,18.49 198,20.22 198.2,21.97 C198.33,24.69 197.44,26.87 198.74,29.41 C200.33,32.91 201.27,36.23 199.91,40.02 C197.14,47.73 189.07,52.62 185,59.86 C182.11,64.63 182.36,69.9 179.67,74.81 C177.48,79.26 173.64,83.26 172.23,88 C172.63,89.05 173.08,90.08 173.59,91.09 C162.06,100.73 148.58,108.48 135.17,115.21 C113.59,126.04 90.04,132.13 66,133.95 C46.94,134.92 28.19,133.81 9.84,128.31 C12.52,128.44 15.11,127.97 17.71,127.36 C13.59,124.99 9.52,122.92 6.36,119.25 C7.55,117.71 8.74,116.16 9.92,114.61 C6.49,112.81 3.3,110.94 0.86,107.84 C16.36,106.46 31.73,105.1 47.04,102.21 C71.64,97.77 95.22,92.23 117.5,80.56 C135.58,71.21 153.63,57.74 163.61,39.62 C169.5,29.41 171.57,17.82 171.19,6.15 C173.97,4.78 176.9,4.38 179.89,3.71 C182.01,2.92 183.78,1.14 185.98,0.48 Z" id="p34"/>
                                        </g>
                                        <g id="p35-link" transform="translate(153.000000, 436.000000)" stroke="#7292BA">
                                            <path d="M0.56,0.32 C11.66,1.07 22.66,1.97 33.8,1.35 C32.56,1.68 31.35,2.1 30.16,2.57 C30.63,5.96 34.82,8.47 36.86,11.09 C40.25,15.17 43.13,19 48.34,20.9 C31.62,16.42 15.12,9.75 0.56,0.32 Z" id="p35"/>
                                        </g>
                                        <g id="p36-link" transform="translate(183.000000, 436.000000)" stroke="#96AB47">
                                            <path d="M3.8,1.35 C6.15,1.14 8.51,1.01 10.86,0.84 C13.3,3.94 16.49,5.81 19.92,7.61 C18.74,9.16 17.55,10.71 16.36,12.25 C19.52,15.92 23.59,17.99 27.71,20.36 C25.11,20.97 22.52,21.44 19.84,21.31 L18.34,20.9 C13.13,19 10.25,15.17 6.86,11.09 C4.82,8.47 0.63,5.96 0.16,2.57 C1.35,2.1 2.56,1.68 3.8,1.35 Z" id="p36"/>
                                        </g>
                                    </g>
                                    <g id="Group">
                                        <g id="p0-link" opacity="0" fill="#FFFFFF">
                                            <path d="M0,0 L535,0 L535,535 L0,535 L0,0 Z M349.43,128.12 C341.6,131.83 334.17,136.25 326.79,140.79 C316.29,147.36 305.51,154.03 295.89,161.85 C288.05,168.43 280.4,174.96 273.86,182.88 C264.41,193.3 255.59,205.82 253.29,219.99 C251.27,231.26 254.01,242.52 259.68,252.32 C265.1,261.51 272.25,269.72 279.93,277.09 C290.79,287.8 303.15,297.47 315.24,306.76 C327.32,316.4 339.13,324.82 349.31,336.68 C356.6,345.51 362.43,355.03 364.41,366.48 C366.13,376.09 364.91,385.89 360.72,394.72 C356.37,403.9 349.25,411.99 341.42,418.39 C328.32,429.32 313.47,437.36 297.68,443.68 C283.32,449.7 268.64,453.77 253.53,457.44 C224.83,464.29 195.67,468.17 166.28,470.51 C167.38,471.11 168.47,471.72 169.56,472.32 C184.12,481.75 200.62,488.42 217.34,492.9 L218.84,493.31 C237.19,498.81 255.94,499.92 275,498.95 C299.04,497.13 322.59,491.04 344.17,480.21 C357.58,473.48 371.06,465.73 382.59,456.09 C402.86,439.61 419.53,418.55 431.19,395.18 C441.46,373.34 448.23,350.23 449.19,326 C449.41,317.62 449.43,309.35 448.4,301.01 C448,297.71 447.32,294.45 447.62,291.1 C459.98,276.44 471.75,261.37 482.37,245.4 C497.83,222.61 511.11,196.09 515.81,168.79 C518.8,151.18 518.81,131.89 513.21,114.78 C509.81,103.88 504.38,93.6 497.54,84.47 C481.37,63.87 458.77,49.79 433.82,42.3 C409.26,35.21 383.2,34.87 358,38.23 C322.56,43.14 289.89,56.4 258.9,73.88 C231.27,89.51 205.22,108.56 180.72,128.73 C151.51,152.32 124.33,178.29 99.13,206.12 C82.23,225.64 65.97,245.28 52.19,267.19 C45.02,278 38.32,289.05 32.79,300.8 C23.39,319.99 15.85,342.43 16.52,364 C17.05,381.18 22.45,397.89 34.65,410.35 C48.56,424.8 68.88,431.73 88.01,435.94 C105.83,439.93 123.79,440.97 142,441.05 C163.57,440.92 185.1,438.64 206.23,434.33 C227.44,429.8 248.85,423.19 268.19,413.26 C278.98,407.58 290.35,400.62 297.65,390.62 C304.34,381.56 306.89,369.77 304.28,358.79 C301.69,347.59 295.02,336.95 287.9,328.05 C279.12,317.74 268.57,308.55 258.57,299.42 C250.37,291.72 242.06,284.83 234.93,276.03 C226.07,265.29 219.12,253.04 217.54,238.99 C216.38,228.66 218.91,218.68 223.48,209.47 C227.98,200.44 233.87,192.15 241.18,185.19 C260.01,167.04 283.26,152.89 306.95,142.03 C320.66,136.07 334.76,131.1 349.43,128.12 Z" id="p0"/>
                                        </g>
                                        <g id="p1-link" transform="translate(16.000000, 36.000000)" fill="#15314A">
                                            <path d="M417.82,6.3 C442.77,13.79 465.37,27.87 481.54,48.47 C488.38,57.6 493.81,67.88 497.21,78.78 C502.81,95.89 502.8,115.18 499.81,132.79 C495.11,160.09 481.83,186.61 466.37,209.4 C455.75,225.37 443.98,240.44 431.62,255.1 C430.11,251.85 429.37,248.44 428.57,244.97 C427.2,239.42 426.07,233.8 424.43,228.33 C422.46,222.45 420.35,216.6 417.86,210.93 C417.08,209.18 416.25,207.44 415.43,205.71 C405.43,185.11 392.23,166.17 375.06,150.9 C365.36,141.62 354.5,133.51 343.08,126.47 C335.9,122.37 328.82,116.9 321.01,114.24 C308.72,120.65 297.09,128.59 286.33,137.32 C276.03,145.9 266.8,155.19 259.55,166.55 C254.97,174.14 251.26,182.98 251.65,192 C251.79,198.92 254.22,205.3 257.83,211.12 C263.15,219.55 269.86,226.18 276.98,233.03 C293.81,249.26 313.22,261.62 330.42,277.2 C339.44,285.09 347.53,293.88 354.07,303.94 C360.13,313.27 363.42,324.08 364.19,335.15 C364.57,346.82 362.5,358.41 356.61,368.62 C346.63,386.74 328.58,400.21 310.5,409.56 C288.22,421.23 264.64,426.77 240.04,431.21 C224.73,434.1 209.36,435.46 193.86,436.84 C191.51,437.01 189.15,437.14 186.8,437.35 C175.66,437.97 164.66,437.07 153.56,436.32 C152.47,435.72 151.38,435.11 150.28,434.51 C179.67,432.17 208.83,428.29 237.53,421.44 C252.64,417.77 267.32,413.7 281.68,407.68 C297.47,401.36 312.32,393.32 325.42,382.39 C333.25,375.99 340.37,367.9 344.72,358.72 C348.91,349.89 350.13,340.09 348.41,330.48 C346.43,319.03 340.6,309.51 333.31,300.68 C323.13,288.82 311.32,280.4 299.24,270.76 C287.15,261.47 274.79,251.8 263.93,241.09 C256.25,233.72 249.1,225.51 243.68,216.32 C238.01,206.52 235.27,195.26 237.29,183.99 C239.59,169.82 248.41,157.3 257.86,146.88 C264.4,138.96 272.05,132.43 279.89,125.85 C289.51,118.03 300.29,111.36 310.79,104.79 C318.17,100.25 325.6,95.83 333.43,92.12 C318.76,95.1 304.66,100.07 290.95,106.03 C267.26,116.89 244.01,131.04 225.18,149.19 C217.87,156.15 211.98,164.44 207.48,173.47 C202.91,182.68 200.38,192.66 201.54,202.99 C203.12,217.04 210.07,229.29 218.93,240.03 C226.06,248.83 234.37,255.72 242.57,263.42 C252.57,272.55 263.12,281.74 271.9,292.05 C279.02,300.95 285.69,311.59 288.28,322.79 C290.89,333.77 288.34,345.56 281.65,354.62 C274.35,364.62 262.98,371.58 252.19,377.26 C232.85,387.19 211.44,393.8 190.23,398.33 C169.1,402.64 147.57,404.92 126,405.05 C107.79,404.97 89.83,403.93 72.01,399.94 C52.88,395.73 32.56,388.8 18.65,374.35 C6.45,361.89 1.05,345.18 0.52,328 C-0.15,306.43 7.39,283.99 16.79,264.8 C22.32,253.05 29.02,242 36.19,231.19 C49.97,209.28 66.23,189.64 83.13,170.12 C108.33,142.29 135.51,116.32 164.72,92.73 C189.22,72.56 215.27,53.51 242.9,37.88 C273.89,20.4 306.56,7.14 342,2.23 C367.2,-1.13 393.26,-0.79 417.82,6.3 Z M300.76,45.06 C312.28,49.92 323.87,54.81 334.97,60.58 C335.9,74.54 337.48,88.38 337.07,102.41 C344.34,97.41 351.76,92.47 359.57,88.36 C365.46,95.01 371.49,101.54 377.23,108.31 C390.99,92 404.04,75.07 417.4,58.44 C425.42,48.11 434.1,37.91 441.37,27.07 C416.93,29.45 392.51,32.26 368.19,35.69 C345.7,38.62 323.17,41.61 300.76,45.06 Z M276.43,48.89 C276.08,50.15 275.72,51.41 275.35,52.66 C273.76,55.13 271.64,55.55 268.96,56.34 C270.92,57.14 273.12,57.82 274.85,59.07 C275.72,60.98 276.03,63.24 276.47,65.28 C277.17,63.21 277.7,60.77 279.01,59 C280.68,57.77 282.99,57.27 284.91,56.56 C283.06,55.96 281.1,55.44 279.35,54.58 C277.9,53.14 277.31,50.7 276.43,48.89 Z M444.01,90.01 C437.67,92.15 431.31,94.2 424.84,95.94 C431.27,97.56 437.58,99.55 443.93,101.46 C446.14,108.03 447.99,114.75 449.89,121.42 C451.92,114.97 453.06,107.99 455.73,101.78 C461.72,99.47 468.08,97.93 474.18,95.88 C468.11,93.68 461.34,92.39 455.59,89.53 C452.78,83.36 451.71,76.24 450.03,69.69 C447.7,76.35 446.38,83.34 444.01,90.01 Z M67.28,264.82 C65.21,287.41 67.75,310.15 74.51,331.79 C78.89,346.19 84.91,360.3 92.97,373.03 C96.5,378.35 100.08,383.65 104.02,388.68 C116.03,389.6 128.04,389.92 140.07,389.41 C159.68,388.78 178.92,385.54 198.01,381.15 C212.49,377.43 226.85,372.81 240.46,366.58 C250.11,361.94 259.89,356.1 267.22,348.19 C272.55,342.56 274.93,334.67 273.74,327.01 C272.19,317.58 267.43,309.8 261.51,302.49 C245.91,283.41 225.88,270.21 210.18,251.84 C198.64,238.51 188.86,223.78 187.08,205.77 C185.74,192.86 188.5,179.49 194.46,167.98 C198.85,159.7 203.65,152.03 210.73,145.75 C216.09,140.57 221.88,136.01 227.79,131.51 C242.02,120.94 258.3,112.9 274.54,105.89 C276.41,105.2 278.26,104.49 280.12,103.77 C273.32,102.58 266.47,102.43 259.62,101.74 C238.34,99.64 217.69,102.44 197.02,107.41 C191.76,108.8 186.5,110.43 181.5,112.61 C174.34,115.77 167.16,118.45 160.34,122.37 C151.97,127.24 144.64,133.1 136.93,138.89 C126.02,147.31 116.56,157.25 107.93,167.95 C85.27,195.38 70.74,229.35 67.28,264.82 Z M408.4,137.44 C405.14,138.47 402.75,141.49 403.1,145.01 C403.13,150.29 409.45,153.51 413.89,150.91 C418.05,148.45 418.38,142.26 415,139.02 C413.19,137.44 410.72,136.95 408.4,137.44 Z M466.31,157.24 C465.03,157.85 464.25,159.67 464.9,160.94 C465.68,163.31 469.22,163.74 470.48,161.51 C472.09,158.63 469.18,155.96 466.31,157.24 Z M34.97,332.68 C31.48,333.82 27.95,334.98 24.53,336.3 C27.97,337.39 31.43,338.37 34.92,339.29 C36.08,343.22 37.22,347.15 38.21,351.14 C39.32,347.29 40.55,343.48 41.61,339.62 C45.03,338.26 48.45,337.06 51.99,336.03 C48.62,335.06 45.27,334.07 41.96,332.9 C40.5,329.18 39.3,325.41 38.24,321.56 C37.31,325.31 36.29,329.04 34.97,332.68 Z" id="p1"/>
                                        </g>
                                        <g id="p2-link" transform="translate(316.000000, 63.000000)" fill="#DBE7F3">
                                            <path d="M141.37,0.07 C134.1,10.91 125.42,21.11 117.4,31.44 C104.04,48.07 90.99,65 77.23,81.31 C71.49,74.54 65.46,68.01 59.57,61.36 C55.46,56.68 51.11,52.23 46.88,47.65 C61.86,40.1 76.51,31.94 91.58,24.57 C100.03,20.45 108.04,15.54 116.51,11.44 C122.81,8.52 128.43,5.04 135.12,3.05 C133.91,3.35 132.69,3.66 131.49,3.98 C122.85,6.9 114.34,10.18 105.5,12.58 C91.97,16.25 78.68,20.69 65.21,24.56 C55.07,27.4 45.19,30.98 34.97,33.58 C23.87,27.81 12.28,22.92 0.76,18.06 C23.17,14.61 45.7,11.62 68.19,8.69 C92.51,5.26 116.93,2.45 141.37,0.07 Z" id="p2"/>
                                        </g>
                                        <g id="p3-link" transform="translate(350.000000, 66.000000)" fill="#7292BA">
                                            <path d="M97.49,0.98 C98.69,0.66 99.91,0.35 101.12,0.05 C94.43,2.04 88.81,5.52 82.51,8.44 C74.04,12.54 66.03,17.45 57.58,21.57 C42.51,28.94 27.86,37.1 12.88,44.65 C17.11,49.23 21.46,53.68 25.57,58.36 C17.76,62.47 10.34,67.41 3.07,72.41 C3.48,58.38 1.9,44.54 0.97,30.58 C11.19,27.98 21.07,24.4 31.21,21.56 C44.68,17.69 57.97,13.25 71.5,9.58 C80.34,7.18 88.85,3.9 97.49,0.98 Z" id="p3"/>
                                        </g>
                                        <g id="p4-link" transform="translate(284.000000, 84.000000)" fill="#DBE7F3">
                                            <path d="M8.43,0.89 C9.31,2.7 9.9,5.14 11.35,6.58 C13.1,7.44 15.06,7.96 16.91,8.56 C14.99,9.27 12.68,9.77 11.01,11 C9.7,12.77 9.17,15.21 8.47,17.28 C8.03,15.24 7.72,12.98 6.85,11.07 C5.12,9.82 2.92,9.14 0.96,8.34 C3.64,7.55 5.76,7.13 7.35,4.66 C7.72,3.41 8.08,2.15 8.43,0.89 Z" id="p4"/>
                                        </g>
                                        <g id="p6-link" transform="translate(440.000000, 105.000000)" fill="#DBE7F3">
                                            <path d="M26.03,0.69 C27.71,7.24 28.78,14.36 31.59,20.53 C37.34,23.39 44.11,24.68 50.18,26.88 C44.08,28.93 37.72,30.47 31.73,32.78 C29.06,38.99 27.92,45.97 25.89,52.42 C23.99,45.75 22.14,39.03 19.93,32.46 C13.58,30.55 7.27,28.56 0.84,26.94 C7.31,25.2 13.67,23.15 20.01,21.01 C22.38,14.34 23.7,7.35 26.03,0.69 Z" id="p6"/>
                                        </g>
                                        <g id="p7-link" transform="translate(83.000000, 137.000000)" fill="#96AB47">
                                            <path d="M192.62,0.74 C193.27,1.61 193.93,2.48 194.59,3.35 C198.94,3.6 203.22,4.3 207.54,4.89 C191.3,11.9 175.02,19.94 160.79,30.51 C159.12,26.52 157.64,21.55 153.18,19.87 C150,19.25 146.69,19.24 143.47,18.74 C143.41,17.24 143.34,15.74 143.26,14.24 C147.39,9.88 153.3,10.26 157.32,5.82 C159.34,5.67 161.36,5.53 163.38,5.36 C161.96,4.66 160.5,4.01 159.01,3.5 C155.87,4.1 153.07,6.03 149.95,6.82 C147.76,7.55 145.19,7.71 143.55,9.41 C140.3,12.52 137.14,15.99 132.8,17.61 C127.45,18.96 121.4,18.08 116.17,16.55 C116.29,17.19 116.42,17.84 116.55,18.49 C115.44,18.55 114.33,18.61 113.22,18.68 C111.14,20.71 109.28,21.85 106.57,22.91 C103.56,26.74 99.27,29.99 97.29,34.37 C96.52,35.94 95.89,37.61 95.26,39.25 C103.01,35.38 104.87,26.19 112.59,23.3 C113.38,22.96 114.17,22.63 114.96,22.3 C120.08,23.72 125.25,24.75 130.21,26.71 C130.29,27.69 130.36,28.67 130.44,29.65 C131.93,29.68 133.42,29.73 134.91,29.75 C136.07,31.07 137.39,32.43 138.26,33.96 C138.75,36.25 137.84,38.91 137.43,41.2 C138.58,42.08 139.73,42.95 140.88,43.82 C140.31,45.13 139.74,46.45 139.17,47.76 C138.28,46.56 137.4,45.36 136.52,44.15 C133.55,45.28 130.75,46.65 128.16,48.5 C129.03,50.29 130.67,52.36 130.48,54.4 C128.51,55.35 126.3,52.11 124.75,51.05 C124.61,52.8 124.46,54.54 124.3,56.28 C125.15,56.43 126,56.58 126.84,56.72 C126.33,58.92 125.8,61.12 125.25,63.31 C122.5,61.55 120.47,59.15 118.24,56.83 C115.87,54.3 112.13,53.5 109.07,51.84 C109.29,50.05 110.91,49.73 112.26,48.86 C115.22,47.26 119.1,45.98 121.23,43.32 C123,41.24 124.47,38.87 125.96,36.58 C120.63,34.18 115.26,34.63 109.62,33.84 C110.29,32.67 110.97,31.5 111.64,30.33 C110.88,31.27 110.11,32.21 109.34,33.15 C107.44,33.72 105.54,34.31 103.64,34.91 C106.9,35.69 109.77,36.47 112.31,38.79 C110.51,39.53 108.67,40.19 106.93,41.05 C103.79,42.15 104.23,47.99 100.86,48.55 L99.13,47.99 C98.75,46.85 98.4,45.7 98.08,44.54 C97.51,44.51 96.93,44.48 96.36,44.46 C96.45,45.27 96.55,46.08 96.64,46.89 C98.74,48.54 100.22,50.06 101.4,52.52 C97.66,52.55 93.74,52.12 90.03,52.7 C86.11,53.52 82.31,55.9 78.74,57.68 C74.01,60.19 68.5,62.96 64.94,67.05 C63.1,69.26 65.49,72.61 67.85,73.2 C71.69,74.43 75.5,75.63 79.2,77.27 C79.68,80.16 80.58,82.63 79.29,85.47 C77.98,88.71 77.61,90.78 78.39,94.27 C79.4,93.71 80.47,93.16 81.41,92.48 C82.87,88.46 81.9,83.21 84.9,79.68 C88.6,75.93 93.28,74.09 98.39,73.13 C99.18,70 99.51,66.94 99.58,63.72 C101.37,61.58 103.21,59.47 105,57.33 C110,57.31 113.11,59.93 116.91,62.73 C116.65,66.11 115.5,69.1 114.05,72.13 C116.52,71.23 118.74,70.53 120.33,68.28 C122.08,65.99 123.72,64.94 126.37,63.87 C126.74,64.91 127.1,65.94 127.46,66.98 C121.5,78.49 118.74,91.86 120.08,104.77 C118.7,106.25 117.37,107.35 115.56,108.28 C115.52,105.83 115.52,103.38 115.51,100.93 C110.94,101.76 110.11,105.15 109.41,109.13 C109.73,110.48 111.16,110.99 112.22,111.66 C114.61,112.89 116.61,114.27 118.63,116.06 C114.24,119.68 109.15,120.39 103.78,121.55 C106.11,119.41 108.81,118.04 111.65,116.68 C104.43,113.23 96.98,117.05 90.65,120.55 C90.25,122.66 89.95,125.05 89.04,127 C86.3,127.83 82.75,127.72 80.41,129.39 C77.46,131.43 74.67,133.68 71.73,135.74 C71.5,138.45 71.66,141.81 70.21,144.16 C67.2,149.7 58.59,151.97 56.48,157.85 C56.79,160.6 57.72,163.29 57.94,166.02 C57.83,167.89 57.21,169.8 56.71,171.6 C56.09,171.61 55.46,171.62 54.84,171.62 C52.82,167.97 51,163.99 48.38,160.73 C46.15,157.94 42.31,157.87 39.07,157.34 C37.54,158.3 35.86,159.86 34.02,160.13 C30.86,160.5 27.59,160.28 24.41,160.23 C21.71,165.52 19.18,171.17 17.91,176.99 C17.65,181.54 19.03,186.38 20.71,190.59 C21.78,193.18 24.36,194.25 27.01,194.37 C29.1,193.62 31.18,192.34 32.55,190.57 C33.71,188.5 34.18,185.98 34.84,183.72 C37.81,182.74 40.57,182.42 43.69,182.5 C40.73,187.59 36.16,193.22 35.46,199.17 C38.73,201.06 43.45,200.02 47.12,200.78 C48.98,202.89 48.54,205.43 48.29,207.99 C47.73,211.77 47.3,215.52 47.31,219.34 C52.82,222.66 58.82,224.36 64.97,226.06 C68.01,221.73 72.23,219.6 76.96,217.56 C81.43,219.3 84.62,217.17 88.97,216.2 C90.86,219.87 93.08,223.53 97.7,223.62 C101.91,223.24 105.97,222.27 110.23,222.32 C111.43,224.97 112.43,228.38 114.58,230.4 C118.89,233.25 125.68,231.81 130.31,232.91 C134.36,234.76 136.94,239.84 139.93,243.06 C142.78,246.15 144.7,250.3 147.89,253 C151.18,253.85 154.96,253.43 158.22,254.53 C160.88,255.58 163.3,257.67 165.71,259.23 C168.15,260.87 170.76,261.85 173.48,262.92 C173.47,263.81 173.47,264.69 173.46,265.58 C159.85,271.81 145.49,276.43 131.01,280.15 C111.92,284.54 92.68,287.78 73.07,288.41 C69.65,282.19 65.2,276.62 60.47,271.36 C58.3,268.84 55.77,265.44 55.61,262 C55.53,258.57 58.93,255.41 59.44,252.08 C59.78,249.28 59.46,246.35 59.97,243.58 C60.67,241.75 62.65,240.33 63.98,238.99 C63.54,235.42 62.96,231.28 60.94,228.2 C59.27,226.39 56.99,225.08 55.03,223.59 C52.06,223.45 48.23,224.13 45.77,222.2 C42.05,219.74 40.35,214.77 37.18,211.53 C32.96,206.62 27.65,205.13 22.5,201.49 C17.05,197.64 11.43,195.34 7.33,190.41 C4.44,187.11 3.28,182.09 1.59,178.04 C-0.35,173.54 0.14,168.61 0.28,163.82 C3.74,128.35 18.27,94.38 40.93,66.95 C49.56,56.25 59.02,46.31 69.93,37.89 C77.64,32.1 84.97,26.24 93.34,21.37 C100.16,17.45 107.34,14.77 114.5,11.61 C119.5,9.43 124.76,7.8 130.02,6.41 C150.69,1.44 171.34,-1.36 192.62,0.74 Z M116.7,12.66 C121.86,16.48 126.56,17.27 132.67,15.09 C129.07,14.09 125.54,12.87 121.95,11.82 C120.34,11.29 118.3,12.33 116.7,12.66 Z M85.59,30.71 C86.5,31.8 87.42,32.88 88.32,33.98 C85.07,35.03 81.86,36.16 78.78,37.65 C84.2,37.24 88.49,34.55 93.06,31.85 C90.82,31.64 88.59,31.43 86.36,31.19 C89.62,29.68 93.06,28.56 96.28,26.97 C97.74,26.28 98.46,25.12 99.15,23.72 C97.29,23.44 96.2,23.68 94.61,24.65 C91.52,26.53 88.66,28.78 85.59,30.71 Z M102.39,98.61 C100.71,100.3 99.1,102.05 97.67,103.97 C101.34,103.04 104.58,101.08 108.16,99.96 C111.5,99.29 115.01,99.45 118.4,99.14 C112.95,96.93 107.99,98.18 102.39,98.61 Z M74.22,227.16 C75.33,227.29 76.45,227.42 77.57,227.55 C77.52,224.95 77.45,222.34 77.31,219.73 C75.98,222.12 74.94,224.53 74.22,227.16 Z M103.72,230.79 C104.95,232.06 106.18,233.32 107.41,234.6 C108.56,233.43 109.97,232.88 110.08,231.07 C109.24,229.81 108.23,228.72 107.17,227.64 C106,228.66 104.86,229.72 103.72,230.79 Z" id="p7"/>
                                        </g>
                                        <g id="p8-link" transform="translate(275.000000, 137.000000)" fill="#7292BA">
                                            <path d="M0.62,0.74 C7.47,1.43 14.32,1.58 21.12,2.77 C19.26,3.49 17.41,4.2 15.54,4.89 C11.22,4.3 6.94,3.6 2.59,3.35 C1.93,2.48 1.27,1.61 0.62,0.74 Z" id="p8"/>
                                        </g>
                                        <g id="p9-link" transform="translate(147.000000, 140.000000)" fill="#7292BA">
                                            <path d="M95.01,0.5 C96.5,1.01 97.96,1.66 99.38,2.36 C97.36,2.53 95.34,2.67 93.32,2.82 C89.3,7.26 83.39,6.88 79.26,11.24 C79.34,12.74 79.41,14.24 79.47,15.74 C82.69,16.24 86,16.25 89.18,16.87 C93.64,18.55 95.12,23.52 96.79,27.51 C90.88,32.01 85.09,36.57 79.73,41.75 C72.65,48.03 67.85,55.7 63.46,63.98 C63.1,62.94 62.74,61.91 62.37,60.87 C59.72,61.94 58.08,62.99 56.33,65.28 C54.74,67.53 52.52,68.23 50.05,69.13 C51.5,66.1 52.65,63.11 52.91,59.73 C49.11,56.93 46,54.31 41,54.33 C39.21,56.47 37.37,58.58 35.58,60.72 C35.51,63.94 35.18,67 34.39,70.13 C29.28,71.09 24.6,72.93 20.9,76.68 C17.9,80.21 18.87,85.46 17.41,89.48 C16.47,90.16 15.4,90.71 14.39,91.27 C13.61,87.78 13.98,85.71 15.29,82.47 C16.58,79.63 15.68,77.16 15.2,74.27 C11.5,72.63 7.69,71.43 3.85,70.2 C1.49,69.61 -0.9,66.26 0.94,64.05 C4.5,59.96 10.01,57.19 14.74,54.68 C18.31,52.9 22.11,50.52 26.03,49.7 C29.74,49.12 33.66,49.55 37.4,49.52 C36.22,47.06 34.74,45.54 32.64,43.89 C32.55,43.08 32.45,42.27 32.36,41.46 C32.93,41.48 33.51,41.51 34.08,41.54 C34.4,42.7 34.75,43.85 35.13,44.99 L36.86,45.55 C40.23,44.99 39.79,39.15 42.93,38.05 C44.67,37.19 46.51,36.53 48.31,35.79 C45.77,33.47 42.9,32.69 39.64,31.91 C41.54,31.31 43.44,30.72 45.34,30.15 C46.11,29.21 46.88,28.27 47.64,27.33 C46.97,28.5 46.29,29.67 45.62,30.84 C51.26,31.63 56.63,31.18 61.96,33.58 C60.47,35.87 59,38.24 57.23,40.32 C55.1,42.98 51.22,44.26 48.26,45.86 C46.91,46.73 45.29,47.05 45.07,48.84 C48.13,50.5 51.87,51.3 54.24,53.83 C56.47,56.15 58.5,58.55 61.25,60.31 C61.8,58.12 62.33,55.92 62.84,53.72 C62,53.58 61.15,53.43 60.3,53.28 C60.46,51.54 60.61,49.8 60.75,48.05 C62.3,49.11 64.51,52.35 66.48,51.4 C66.67,49.36 65.03,47.29 64.16,45.5 C66.75,43.65 69.55,42.28 72.52,41.15 C73.4,42.36 74.28,43.56 75.17,44.76 C75.74,43.45 76.31,42.13 76.88,40.82 C75.73,39.95 74.58,39.08 73.43,38.2 C73.84,35.91 74.75,33.25 74.26,30.96 C73.39,29.43 72.07,28.07 70.91,26.75 C69.42,26.73 67.93,26.68 66.44,26.65 C66.36,25.67 66.29,24.69 66.21,23.71 C61.25,21.75 56.08,20.72 50.96,19.3 C50.17,19.63 49.38,19.96 48.59,20.3 C40.87,23.19 39.01,32.38 31.26,36.25 C31.89,34.61 32.52,32.94 33.29,31.37 C35.27,26.99 39.56,23.74 42.57,19.91 C45.28,18.85 47.14,17.71 49.22,15.68 C50.33,15.61 51.44,15.55 52.55,15.49 C52.42,14.84 52.29,14.19 52.17,13.55 C57.4,15.08 63.45,15.96 68.8,14.61 C73.14,12.99 76.3,9.52 79.55,6.41 C81.19,4.71 83.76,4.55 85.95,3.82 C89.07,3.03 91.87,1.1 95.01,0.5 Z" id="p9"/>
                                        </g>
                                        <g id="p10-link" transform="translate(199.000000, 148.000000)" fill="#7292BA">
                                            <path d="M5.95,0.82 C9.54,1.87 13.07,3.09 16.67,4.09 C10.56,6.27 5.86,5.48 0.7,1.66 C2.3,1.33 4.34,0.29 5.95,0.82 Z" id="p10"/>
                                        </g>
                                        <g id="p11-link" transform="translate(267.000000, 150.000000)" fill="#7292BA">
                                            <path d="M70.01,0.24 C77.82,2.9 84.9,8.37 92.08,12.47 C91.12,13.15 90.18,13.83 89.25,14.53 C89.32,16.35 89.39,18.16 89.47,19.98 C90.9,22.08 93.16,24.43 93.56,27 C93.25,31.21 86.73,34.53 87.76,39.06 C88.92,42.69 91.69,45.91 94.54,48.37 C97.46,51.14 102.33,50.87 106.14,51.54 C105.57,52.74 105.01,53.94 104.45,55.14 C106.38,56.92 108.44,58.54 110.56,60.09 C108.54,63.52 107.72,66.35 107.33,70.33 C105.02,71.86 102.92,73.37 101.48,75.8 C99.21,79.52 95.82,81.4 92.74,84.36 C96.46,86.98 100.6,89.15 104.06,92.1 C104.82,94.04 103.99,96.65 103.8,98.68 C98.46,98.4 93.19,98.43 87.93,99.52 C89.07,102.46 90.41,105.33 91.52,108.28 C92.59,111.16 92.24,114.73 92.21,117.77 C95.59,119.57 98.61,120.56 102.39,121.15 C102.26,122.48 102.2,123.85 101.9,125.16 C100.29,127.17 97.76,128.58 95.69,130.07 C95.64,133.63 95.64,137.19 95.64,140.75 C93.45,142.93 91.27,145.11 89.11,147.32 C87.68,147.44 86.25,147.55 84.82,147.66 C81.91,152.56 81.14,157.86 79.42,163.2 C62.22,147.62 42.81,135.26 25.98,119.03 C18.86,112.18 12.15,105.55 6.83,97.12 C3.22,91.3 0.79,84.92 0.65,78 C0.26,68.98 3.97,60.14 8.55,52.55 C15.8,41.19 25.03,31.9 35.33,23.32 C46.09,14.59 57.72,6.65 70.01,0.24 Z M32.34,31.09 C32.31,32.57 32.29,34.05 32.27,35.53 C34.81,37.08 37.86,39.65 40.97,39.49 C44.83,39.61 47.9,38.07 51.32,36.57 C50.95,35.26 50.54,33.97 50.11,32.69 C44.18,32.08 38.24,32.05 32.34,31.09 Z M77.06,56.28 C79.47,58.88 81.77,60.73 85.05,62.17 C85.25,66.93 88.24,69.85 86.58,74.35 C87.22,75.16 87.86,75.98 88.5,76.79 C93.11,76.61 97.36,75.72 100.71,72.29 C100.54,70.55 100.87,68.99 99.18,67.96 C94.03,64.43 89.3,60.52 84.69,56.31 C83.09,54.79 82.11,53.01 80.87,51.2 C79.89,51.39 78.9,51.59 77.94,51.91 C77.6,53.36 77.31,54.81 77.06,56.28 Z M78.57,74.1 C80.56,72.83 82.55,71.56 84.54,70.29 C84.55,68.34 84.56,66.4 84.57,64.46 C81.13,64.35 77.9,64.12 74.48,64.77 C74.27,68.67 76.47,71.13 78.57,74.1 Z" id="p11"/>
                                        </g>
                                        <g id="p12-link" transform="translate(161.000000, 160.000000)" fill="#7292BA">
                                            <path d="M21.15,0.72 C20.46,2.12 19.74,3.28 18.28,3.97 C15.06,5.56 11.62,6.68 8.36,8.19 C10.59,8.43 12.82,8.64 15.06,8.85 C10.49,11.55 6.2,14.24 0.78,14.65 C3.86,13.16 7.07,12.03 10.32,10.98 C9.42,9.88 8.5,8.8 7.59,7.71 C10.66,5.78 13.52,3.53 16.61,1.65 C18.2,0.68 19.29,0.44 21.15,0.72 Z" id="p12"/>
                                        </g>
                                        <g id="p13-link" transform="translate(346.000000, 162.000000)" fill="#96AB47">
                                            <path d="M13.08,0.47 C24.5,7.51 35.36,15.62 45.06,24.9 C62.23,40.17 75.43,59.11 85.43,79.71 L85.47,82.04 C84.84,82.72 84.2,83.39 83.55,84.06 C83.24,88.27 83.38,92.1 85.23,95.97 C84.96,97.29 84.72,98.61 84.47,99.93 C86.38,101.18 87.98,102.6 89.54,104.27 C87.85,104.43 86.15,104.57 84.45,104.69 C82.23,101.46 79.79,98.54 76.86,95.93 C76.64,95.25 76.41,94.57 76.18,93.89 C74.65,92.45 73.12,90.01 71.04,89.44 C69.95,93.85 69.25,98.37 68.29,102.82 C66.79,103 65.52,103.19 64.07,102.6 C65.1,100.97 66.4,99.49 67.63,98.01 C67.32,94.8 66.82,91.62 66.27,88.44 C68.18,87.67 70.09,86.89 72.01,86.13 C68.23,83.9 64.35,81.82 61.02,78.98 C58.52,76.84 56.09,74.66 53.4,72.76 C53.4,73.92 53.41,75.09 53.43,76.25 C56.99,80.51 61.18,84.57 64.11,89.27 C62.39,89.44 61.11,89.41 59.73,88.24 C56.96,86.1 54.55,83.46 52.02,81.04 C51.22,81.77 50.42,82.5 49.61,83.23 C46.5,83.98 43.63,83.66 41.63,86.53 C39.3,89.62 36.22,92.43 34.49,95.89 C34.45,98.35 35.04,100.89 35.47,103.31 C33.03,105.1 31.21,106.87 29.6,109.47 C31.09,109.46 32.57,109.45 34.05,109.44 C38.39,106.42 42.8,104.13 48.02,103.06 C51.83,102.25 56.38,99.57 60.19,100.78 C61.96,103.03 61.37,106.76 61.48,109.46 C65.79,112.49 70.08,115.54 74.27,118.75 C76.23,120.33 78.45,120.56 80.84,120.99 C80.58,119.09 80.3,117.19 80.02,115.29 C86.08,114.28 92.51,117.89 98.57,118.97 C99.37,122.44 100.11,125.85 101.62,129.1 C101.32,132.45 102,135.71 102.4,139.01 C103.43,147.35 103.41,155.62 103.19,164 C102.23,188.23 95.46,211.34 85.19,233.18 C73.53,256.55 56.86,277.61 36.59,294.09 C36.08,293.08 35.63,292.05 35.23,291 C36.64,286.26 40.48,282.26 42.67,277.81 C45.36,272.9 45.11,267.63 48,262.86 C52.07,255.62 60.14,250.73 62.91,243.02 C64.27,239.23 63.33,235.91 61.74,232.41 C60.44,229.87 61.33,227.69 61.2,224.97 C61,223.22 60.28,221.49 59.7,219.83 C61.71,215.66 62.7,212.19 62.9,207.51 C58.3,206.19 53.73,204.16 48.98,203.48 C46.78,204.14 45.01,205.92 42.89,206.71 C39.9,207.38 36.97,207.78 34.19,209.15 C33.42,198.08 30.13,187.27 24.07,177.94 C17.53,167.88 9.44,159.09 0.42,151.2 C2.14,145.86 2.91,140.56 5.82,135.66 C7.25,135.55 8.68,135.44 10.11,135.32 C12.27,133.11 14.45,130.93 16.64,128.75 C16.64,125.19 16.64,121.63 16.69,118.07 C18.76,116.58 21.29,115.17 22.9,113.16 C23.2,111.85 23.26,110.48 23.39,109.15 C19.61,108.56 16.59,107.57 13.21,105.77 C13.24,102.73 13.59,99.16 12.52,96.28 C11.41,93.33 10.07,90.46 8.93,87.52 C14.19,86.43 19.46,86.4 24.8,86.68 C24.99,84.65 25.82,82.04 25.06,80.1 C21.6,77.15 17.46,74.98 13.74,72.36 C16.82,69.4 20.21,67.52 22.48,63.8 C23.92,61.37 26.02,59.86 28.33,58.33 C28.72,54.35 29.54,51.52 31.56,48.09 C29.44,46.54 27.38,44.92 25.45,43.14 C26.01,41.94 26.57,40.74 27.14,39.54 C23.33,38.87 18.46,39.14 15.54,36.37 C12.69,33.91 9.92,30.69 8.76,27.06 C7.73,22.53 14.25,19.21 14.56,15 C14.16,12.43 11.9,10.08 10.47,7.98 C10.39,6.16 10.32,4.35 10.25,2.53 C11.18,1.83 12.12,1.15 13.08,0.47 Z M27.23,12.82 C26.83,18.45 29.65,22.4 32.03,27.19 C34.14,31.14 37.44,33.43 40.88,36.11 C39.8,37.89 38.73,39.66 37.64,41.43 C38.05,42.17 38.46,42.91 38.87,43.66 C40.17,43.57 41.47,43.48 42.77,43.39 C42.16,45.61 41.56,47.83 40.97,50.05 C42.85,49.56 44.72,49.07 46.6,48.58 C46.56,47.39 46.53,46.21 46.5,45.02 C47.26,44.15 48.08,43.28 48.73,42.31 C47.48,40.84 45.99,39.52 44.58,38.2 C44.46,36.97 44.33,35.74 44.21,34.52 C46.57,34.27 48.95,34.25 51.27,33.86 C49.34,33.74 47.42,33.64 45.49,33.52 C45.5,32.14 45.51,30.76 45.51,29.38 C44.18,29.34 42.84,29.29 41.5,29.25 C41.12,30.39 40.75,31.52 40.37,32.65 C37.81,30.54 35.28,28.38 32.84,26.12 C32.72,23.98 32.83,21.65 32.23,19.58 C31.14,17.06 29.02,14.87 27.23,12.82 Z M26.86,37.32 C29.35,42.17 32.7,46.37 36.72,50.04 C36.12,50.82 35.51,51.61 34.91,52.4 C37.02,52.48 39.13,52.54 41.23,52.6 C37.29,47.7 33.26,43.1 30.18,37.57 C29.08,37.46 27.97,37.37 26.86,37.32 Z" id="p13"/>
                                        </g>
                                        <g id="p14-link" transform="translate(419.000000, 173.000000)" fill="#DBE7F3">
                                            <path d="M5.4,0.44 C7.72,-0.05 10.19,0.44 12,2.02 C15.38,5.26 15.05,11.45 10.89,13.91 C6.45,16.51 0.13,13.29 0.1,8.01 C-0.25,4.49 2.14,1.47 5.4,0.44 Z" id="p14"/>
                                        </g>
                                        <g id="p15-link" transform="translate(373.000000, 174.000000)" fill="#7292BA">
                                            <path d="M0.23,0.82 C2.02,2.87 4.14,5.06 5.23,7.58 C5.83,9.65 5.72,11.98 5.84,14.12 C8.28,16.38 10.81,18.54 13.37,20.65 C13.75,19.52 14.12,18.39 14.5,17.25 C15.84,17.29 17.18,17.34 18.51,17.38 C18.51,18.76 18.5,20.14 18.49,21.52 C20.42,21.64 22.34,21.74 24.27,21.86 C21.95,22.25 19.57,22.27 17.21,22.52 C17.33,23.74 17.46,24.97 17.58,26.2 C18.99,27.52 20.48,28.84 21.73,30.31 C21.08,31.28 20.26,32.15 19.5,33.02 C19.53,34.21 19.56,35.39 19.6,36.58 C17.72,37.07 15.85,37.56 13.97,38.05 C14.56,35.83 15.16,33.61 15.77,31.39 C14.47,31.48 13.17,31.57 11.87,31.66 C11.46,30.91 11.05,30.17 10.64,29.43 C11.73,27.66 12.8,25.89 13.88,24.11 C10.44,21.43 7.14,19.14 5.03,15.19 C2.65,10.4 -0.17,6.45 0.23,0.82 Z" id="p15"/>
                                        </g>
                                        <g id="p16-link" transform="translate(299.000000, 181.000000)" fill="#96AB47">
                                            <path d="M0.34,0.09 C6.24,1.05 12.18,1.08 18.11,1.69 C18.54,2.97 18.95,4.26 19.32,5.57 C15.9,7.07 12.83,8.61 8.97,8.49 C5.86,8.65 2.81,6.08 0.27,4.53 C0.29,3.05 0.31,1.57 0.34,0.09 Z" id="p16"/>
                                        </g>
                                        <g id="p17-link" transform="translate(48.000000, 100.000000)" fill="#DBE7F3">
                                            <path d="M434.25391,93.24 C437.025988,91.96 439.836701,94.63 438.281633,97.51 C437.064623,99.74 433.645405,99.31 432.892018,96.94 C432.264196,95.67 433.017583,93.85 434.25391,93.24 Z" id="p17"/>
                                            <path d="M406.587846,133.329171 C409.359924,132.049171 412.170637,134.719171 410.615569,137.599171 C409.398559,139.829171 405.979341,139.399171 405.225954,137.029171 C404.598132,135.759171 405.351519,133.939171 406.587846,133.329171 Z" id="p17"/>
                                            <path d="M11.587846,180.329171 C14.3599238,179.049171 17.1706368,181.719171 15.6155688,184.599171 C14.398559,186.829171 10.9793411,186.399171 10.2259541,184.029171 C9.59813162,182.759171 10.3515186,180.939171 11.587846,180.329171 Z" id="p17"/>
                                            <path d="M1.58784599,208.329171 C4.35992377,207.049171 7.17063679,209.719171 5.61556876,212.599171 C4.398559,214.829171 0.979341111,214.399171 0.225954118,212.029171 C-0.401868376,210.759171 0.351518617,208.939171 1.58784599,208.329171 Z" id="p17"/>
                                            <path d="M203.878689,0.389500655 C207.158524,-1.12509547 210.48407,2.03425739 208.644163,5.44209868 C207.204236,8.08080912 203.158725,7.57199948 202.267342,4.76763009 C201.524522,3.26486674 202.415906,1.11130037 203.878689,0.389500655 Z" id="p17"/>
                                        </g>
                                        <g id="p18-link" transform="translate(372.000000, 199.000000)" fill="#7292BA">
                                            <path d="M4.18,0.57 C7.26,6.1 11.29,10.7 15.23,15.6 C13.13,15.54 11.02,15.48 8.91,15.4 C9.51,14.61 10.12,13.82 10.72,13.04 C6.7,9.37 3.35,5.17 0.86,0.32 C1.97,0.37 3.08,0.46 4.18,0.57 Z" id="p18"/>
                                        </g>
                                        <g id="p19-link" transform="translate(344.000000, 201.000000)" fill="#96AB47">
                                            <path d="M3.87,0.2 C5.11,2.01 6.09,3.79 7.69,5.31 C12.3,9.52 17.03,13.43 22.18,16.96 C23.87,17.99 23.54,19.55 23.71,21.29 C20.36,24.72 16.11,25.61 11.5,25.79 C10.86,24.98 10.22,24.16 9.58,23.35 C11.24,18.85 8.25,15.93 8.05,11.17 C4.77,9.73 2.47,7.88 0.06,5.28 C0.31,3.81 0.6,2.36 0.94,0.91 C1.9,0.59 2.89,0.39 3.87,0.2 Z" id="p19"/>
                                        </g>
                                        <g id="p20-link" transform="translate(341.000000, 214.000000)" fill="#96AB47">
                                            <path d="M10.57,0.46 C10.56,2.4 10.55,4.34 10.54,6.29 C8.55,7.56 6.56,8.83 4.57,10.1 C2.47,7.13 0.27,4.67 0.48,0.77 C3.9,0.12 7.13,0.35 10.57,0.46 Z" id="p20"/>
                                        </g>
                                        <g id="p22-link" transform="translate(180.000000, 234.000000)" fill="#7292BA">
                                            <path d="M21.4,2.14 C18.01,2.45 14.5,2.29 11.16,2.96 C7.58,4.08 4.34,6.04 0.67,6.97 C2.1,5.05 3.71,3.3 5.39,1.61 C10.99,1.18 15.95,-0.07 21.4,2.14 Z" id="p22"/>
                                        </g>
                                        <g id="p23-link" transform="translate(375.000000, 234.000000)" fill="#7292BA">
                                            <path d="M24.4,0.76 C27.09,2.66 29.52,4.84 32.02,6.98 C35.35,9.82 39.23,11.9 43.01,14.13 C41.09,14.89 39.18,15.67 37.27,16.44 C37.82,19.62 38.32,22.8 38.63,26.01 C37.4,27.49 36.1,28.97 35.07,30.6 C36.52,31.19 37.79,31 39.29,30.82 C40.25,26.37 40.95,21.85 42.04,17.44 C44.12,18.01 45.65,20.45 47.18,21.89 C47.41,22.57 47.64,23.25 47.86,23.93 C50.79,26.54 53.23,29.46 55.45,32.69 C57.15,32.57 58.85,32.43 60.54,32.27 C58.98,30.6 57.38,29.18 55.47,27.93 C55.72,26.61 55.96,25.29 56.23,23.97 C54.38,20.1 54.24,16.27 54.55,12.06 C55.2,11.39 55.84,10.72 56.47,10.04 L56.43,7.71 C57.25,9.44 58.08,11.18 58.86,12.93 C57.99,14.49 56.75,16.16 56.41,17.93 C56.41,20.64 57.29,23.48 57.92,26.1 C59.53,27.62 61.13,29.16 62.72,30.71 C63.63,30.58 64.53,30.45 65.43,30.33 C67.07,35.8 68.2,41.42 69.57,46.97 C63.51,45.89 57.08,42.28 51.02,43.29 C51.3,45.19 51.58,47.09 51.84,48.99 C49.45,48.56 47.23,48.33 45.27,46.75 C41.08,43.54 36.79,40.49 32.48,37.46 C32.37,34.76 32.96,31.03 31.19,28.78 C27.38,27.57 22.83,30.25 19.02,31.06 C13.8,32.13 9.39,34.42 5.05,37.44 C3.57,37.45 2.09,37.46 0.6,37.47 C2.21,34.87 4.03,33.1 6.47,31.31 C6.04,28.89 5.45,26.35 5.49,23.89 C7.22,20.43 10.3,17.62 12.63,14.53 C14.63,11.66 17.5,11.98 20.61,11.23 C21.42,10.5 22.22,9.77 23.02,9.04 C25.55,11.46 27.96,14.1 30.73,16.24 C32.11,17.41 33.39,17.44 35.11,17.27 C32.18,12.57 27.99,8.51 24.43,4.25 C24.41,3.09 24.4,1.92 24.4,0.76 Z M19.01,15.42 C20.96,17.79 23.14,19.98 25.31,22.14 C25.87,20.89 26.44,19.65 27.01,18.42 C25.34,17.4 23.63,16.34 21.88,15.45 C20.93,15.42 19.97,15.41 19.01,15.42 Z" id="p23"/>
                                        </g>
                                        <g id="p24-link" transform="translate(100.000000, 237.000000)" fill="#7292BA">
                                            <path d="M98.51,0.93 C98.52,3.38 98.52,5.83 98.56,8.28 C100.37,7.35 101.7,6.25 103.08,4.77 C104.86,22.78 114.64,37.51 126.18,50.84 C141.88,69.21 161.91,82.41 177.51,101.49 C183.43,108.8 188.19,116.58 189.74,126.01 C190.93,133.67 188.55,141.56 183.22,147.19 C175.89,155.1 166.11,160.94 156.46,165.58 C156.47,164.69 156.47,163.81 156.48,162.92 C153.76,161.85 151.15,160.87 148.71,159.23 C146.3,157.67 143.88,155.58 141.22,154.53 C137.96,153.43 134.18,153.85 130.89,153 C127.7,150.3 125.78,146.15 122.93,143.06 C119.94,139.84 117.36,134.76 113.31,132.91 C108.68,131.81 101.89,133.25 97.58,130.4 C95.43,128.38 94.43,124.97 93.23,122.32 C88.97,122.27 84.91,123.24 80.7,123.62 C76.08,123.53 73.86,119.87 71.97,116.2 C67.62,117.17 64.43,119.3 59.96,117.56 C55.23,119.6 51.01,121.73 47.97,126.06 C41.82,124.36 35.82,122.66 30.31,119.34 C30.3,115.52 30.73,111.77 31.29,107.99 C31.54,105.43 31.98,102.89 30.12,100.78 C26.45,100.02 21.73,101.06 18.46,99.17 C19.16,93.22 23.73,87.59 26.69,82.5 C23.57,82.42 20.81,82.74 17.84,83.72 C17.18,85.98 16.71,88.5 15.55,90.57 C14.18,92.34 12.1,93.62 10.01,94.37 C7.36,94.25 4.78,93.18 3.71,90.59 C2.03,86.38 0.65,81.54 0.91,76.99 C2.18,71.17 4.71,65.52 7.41,60.23 C10.59,60.28 13.86,60.5 17.02,60.13 C18.86,59.86 20.54,58.3 22.07,57.34 C25.31,57.87 29.15,57.94 31.38,60.73 C34,63.99 35.82,67.97 37.84,71.62 C38.46,71.62 39.09,71.61 39.71,71.6 C40.21,69.8 40.83,67.89 40.94,66.02 C40.72,63.29 39.79,60.6 39.48,57.85 C41.59,51.97 50.2,49.7 53.21,44.16 C54.66,41.81 54.5,38.45 54.73,35.74 C57.67,33.68 60.46,31.43 63.41,29.39 C65.75,27.72 69.3,27.83 72.04,27 C72.95,25.05 73.25,22.66 73.65,20.55 C79.98,17.05 87.43,13.23 94.65,16.68 C91.81,18.04 89.11,19.41 86.78,21.55 C92.15,20.39 97.24,19.68 101.63,16.06 C99.61,14.27 97.61,12.89 95.22,11.66 C94.16,10.99 92.73,10.48 92.41,9.13 C93.11,5.15 93.94,1.76 98.51,0.93 Z M50.36,86.45 C50.61,88.89 50.92,91.33 51.28,93.76 C53.27,93.67 55.26,93.56 57.25,93.46 C55.42,90.45 53.69,87.92 50.36,86.45 Z" id="p24"/>
                                        </g>
                                        <g id="p25-link" transform="translate(431.000000, 246.000000)" fill="#96AB47">
                                            <path d="M2.86,0.93 C5.35,6.6 7.46,12.45 9.43,18.33 C8.53,18.45 7.63,18.58 6.72,18.71 C5.13,17.16 3.53,15.62 1.92,14.1 C1.29,11.48 0.41,8.64 0.41,5.93 C0.75,4.16 1.99,2.49 2.86,0.93 Z" id="p25"/>
                                        </g>
                                        <g id="p26-link" transform="translate(394.000000, 249.000000)" fill="#96AB47">
                                            <path d="M2.88,0.45 C4.63,1.34 6.34,2.4 8.01,3.42 C7.44,4.65 6.87,5.89 6.31,7.14 C4.14,4.98 1.96,2.79 0.01,0.42 C0.97,0.41 1.93,0.42 2.88,0.45 Z" id="p26"/>
                                        </g>
                                        <g id="p28-link" transform="translate(82.000000, 300.000000)" fill="#7292BA">
                                            <path d="M1.28,0.82 C1.14,5.61 0.65,10.54 2.59,15.04 C4.28,19.09 5.44,24.11 8.33,27.41 C12.43,32.34 18.05,34.64 23.5,38.49 C28.65,42.13 33.96,43.62 38.18,48.53 C41.35,51.77 43.05,56.74 46.77,59.2 C49.23,61.13 53.06,60.45 56.03,60.59 C57.99,62.08 60.27,63.39 61.94,65.2 C63.96,68.28 64.54,72.42 64.98,75.99 C63.65,77.33 61.67,78.75 60.97,80.58 C60.46,83.35 60.78,86.28 60.44,89.08 C59.93,92.41 56.53,95.57 56.61,99 C56.77,102.44 59.3,105.84 61.47,108.36 C66.2,113.62 70.65,119.19 74.07,125.41 C62.04,125.92 50.03,125.6 38.02,124.68 C34.08,119.65 30.5,114.35 26.97,109.03 C18.91,96.3 12.89,82.19 8.51,67.79 C1.75,46.15 -0.79,23.41 1.28,0.82 Z" id="p28"/>
                                        </g>
                                        <g id="p30-link" transform="translate(150.000000, 323.000000)" fill="#96AB47">
                                            <path d="M0.36,0.45 C3.69,1.92 5.42,4.45 7.25,7.46 C5.26,7.56 3.27,7.67 1.28,7.76 C0.92,5.33 0.61,2.89 0.36,0.45 Z" id="p30"/>
                                        </g>
                                        <g id="p31-link" transform="translate(157.000000, 356.000000)" fill="#7292BA">
                                            <path d="M3.31,0.73 C3.45,3.34 3.52,5.95 3.57,8.55 C2.45,8.42 1.33,8.29 0.22,8.16 C0.94,5.53 1.98,3.12 3.31,0.73 Z" id="p31"/>
                                        </g>
                                        <g id="p32-link" transform="translate(40.000000, 357.000000)" fill="#DBE7F3">
                                            <path d="M14.24,0.56 C15.3,4.41 16.5,8.18 17.96,11.9 C21.27,13.07 24.62,14.06 27.99,15.03 C24.45,16.06 21.03,17.26 17.61,18.62 C16.55,22.48 15.32,26.29 14.21,30.14 C13.22,26.15 12.08,22.22 10.92,18.29 C7.43,17.37 3.97,16.39 0.53,15.3 C3.95,13.98 7.48,12.82 10.97,11.68 C12.29,8.04 13.31,4.31 14.24,0.56 Z" id="p32"/>
                                        </g>
                                        <g id="p33-link" transform="translate(186.000000, 364.000000)" fill="#96AB47">
                                            <path d="M4.17,0.64 C5.23,1.72 6.24,2.81 7.08,4.07 C6.97,5.88 5.56,6.43 4.41,7.6 C3.18,6.32 1.95,5.06 0.72,3.79 C1.86,2.72 3,1.66 4.17,0.64 Z" id="p33"/>
                                        </g>
                                        <g id="p34-link" transform="translate(209.000000, 365.000000)" fill="#7292BA">
                                            <path d="M185.98,0.48 C190.73,1.16 195.3,3.19 199.9,4.51 C199.7,9.19 198.71,12.66 196.7,16.83 C197.28,18.49 198,20.22 198.2,21.97 C198.33,24.69 197.44,26.87 198.74,29.41 C200.33,32.91 201.27,36.23 199.91,40.02 C197.14,47.73 189.07,52.62 185,59.86 C182.11,64.63 182.36,69.9 179.67,74.81 C177.48,79.26 173.64,83.26 172.23,88 C172.63,89.05 173.08,90.08 173.59,91.09 C162.06,100.73 148.58,108.48 135.17,115.21 C113.59,126.04 90.04,132.13 66,133.95 C46.94,134.92 28.19,133.81 9.84,128.31 C12.52,128.44 15.11,127.97 17.71,127.36 C13.59,124.99 9.52,122.92 6.36,119.25 C7.55,117.71 8.74,116.16 9.92,114.61 C6.49,112.81 3.3,110.94 0.86,107.84 C16.36,106.46 31.73,105.1 47.04,102.21 C71.64,97.77 95.22,92.23 117.5,80.56 C135.58,71.21 153.63,57.74 163.61,39.62 C169.5,29.41 171.57,17.82 171.19,6.15 C173.97,4.78 176.9,4.38 179.89,3.71 C182.01,2.92 183.78,1.14 185.98,0.48 Z" id="p34"/>
                                        </g>
                                        <g id="p35-link" transform="translate(169.000000, 472.000000)" fill="#7292BA">
                                            <path d="M0.56,0.32 C11.66,1.07 22.66,1.97 33.8,1.35 C32.56,1.68 31.35,2.1 30.16,2.57 C30.63,5.96 34.82,8.47 36.86,11.09 C40.25,15.17 43.13,19 48.34,20.9 C31.62,16.42 15.12,9.75 0.56,0.32 Z" id="p35"/>
                                        </g>
                                        <g id="p36-link" transform="translate(199.000000, 472.000000)" fill="#96AB47">
                                            <path d="M3.8,1.35 C6.15,1.14 8.51,1.01 10.86,0.84 C13.3,3.94 16.49,5.81 19.92,7.61 C18.74,9.16 17.55,10.71 16.36,12.25 C19.52,15.92 23.59,17.99 27.71,20.36 C25.11,20.97 22.52,21.44 19.84,21.31 L18.34,20.9 C13.13,19 10.25,15.17 6.86,11.09 C4.82,8.47 0.63,5.96 0.16,2.57 C1.35,2.1 2.56,1.68 3.8,1.35 Z" id="p36"/>
                                        </g>
                                    </g>
                                </g>
                                <path d="M153.519659,359.91929 C157.555588,360.06313 151.845561,360.479624 151.57405,360.920853 C151.197648,361.53254 154.296224,360.947954 153.689163,361.331772 C151.517694,362.704698 152.31846,361.780624 151.062893,363.55053 C150.654866,364.125705 152.854456,363.476265 153.094958,364.139191 L150.778047,363.476178 C151.147851,364.495515 152.450446,365.527647 153.500435,365.25686 L150.774945,364.851129 C153.311199,364.197042 156.270196,361.15824 152.270018,366.709824 C151.790053,367.375936 151.06614,364.062255 151.857319,364.281589 L150.98788,366.609485 C155.917824,367.976185 151.897675,363.122575 151.707802,363.519508 C150.959935,365.082935 150.122339,367.041861 150.796763,368.638345 C151.341803,369.928555 151.330157,365.777002 152.196582,364.676539 C152.774144,363.942965 150.825663,367.25209 151.740197,367.440069 L152.172425,364.801849 C155.783114,365.544014 149.119024,371.87909 152.893516,364.559315 C153.24899,363.869954 152.50086,366.241474 152.932574,366.885838 C153.633293,367.931712 155.203956,363.85778 152.929268,364.949586 C152.859089,364.983271 150.923141,383.008195 153.186754,359.792098 C153.319542,358.430191 153.103082,365.254647 152.978904,363.891928 L151.526601,365.148434 C151.384735,363.591602 151.745594,358.904791 151.805904,360.46691 L150.584743,366.112364 C150.623655,367.120257 151.35366,362.561176 151.919008,363.396486 L151.658573,365.848319 C152.591769,367.227128 153.817421,355.781188 153.996233,363.640749" id="Path" stroke="#96AB47" fill="#96AB47"/>
                                <path d="M152.803043,362.672496 C151.193231,357.972696 150.687047,369.375106 151.684256,362.597941" id="Path-2" stroke="#96AB47"/>
                                <path d="M153,367 C153.557792,367.333333 154.115583,367.666667 154.673375,368" id="Path-3" stroke="#96AB47" stroke-width="6"/>
                                <path d="M154.199,364.59177 C152.799333,364.53059 151.399667,364.46941 150,364.40823" id="Path-4" stroke="#96AB47" fill="#96AB47"/>
                            </g>
                        </g>
                    </g>
                    <ellipse id="Oval" fill="#96AB47" cx="159.5" cy="361" rx="4.5" ry="5"/>
                </g>
            </g>
        </g>
    </g>
</svg>
