<?xml version="1.0" encoding="UTF-8" standalone="no"?>
<!DOCTYPE svg PUBLIC "-//W3C//DTD SVG 1.2//EN" "http://www.w3.org/Graphics/SVG/1.2/DTD/svg12.dtd">
<svg version="1.2" xmlns="http://www.w3.org/2000/svg" xmlns:xlink="http://www.w3.org/1999/xlink" width="503" height="503" viewBox="0 0 503 503">
<title>Solvyn Logo</title>
<g fill="none" fill-rule="evenodd">
<g fill-rule="nonzero">
<g fill="#000">
<path d="M417.82 7.3c24.95 7.49 47.55 21.57 63.72 42.17 6.84 9.13 12.27 19.41 15.67 30.31 5.6 17.11 5.59 36.4 2.6 54.01-4.7 27.3-17.98 53.82-33.44 76.61-10.62 15.97-22.39 31.04-34.75 45.7-1.51-3.25-2.25-6.66-3.05-10.13-1.37-5.55-2.5-11.17-4.14-16.64-1.97-5.88-4.08-11.73-6.57-17.4-.78-1.75-1.61-3.49-2.43-5.22-10-20.6-23.2-39.54-40.37-54.81-9.7-9.28-20.56-17.39-31.98-24.43-7.18-4.1-14.26-9.57-22.07-12.23-12.29 6.41-23.92 14.35-34.68 23.08-10.3 8.58-19.53 17.87-26.78 29.23-4.58 7.59-8.29 16.43-7.9 25.45.14 6.92 2.57 13.3 6.18 19.12 5.32 8.43 12.03 15.06 19.15 21.91 16.83 16.23 36.24 28.59 53.44 44.17 9.02 7.89 17.11 16.68 23.65 26.74 6.06 9.33 9.35 20.14 10.12 31.21.38 11.67-1.69 23.26-7.58 33.47-9.98 18.12-28.03 31.59-46.11 40.94-22.28 11.67-45.86 17.21-70.46 21.65-15.31 2.89-30.68 4.25-46.18 5.63l-7.06.51c-11.14.62-22.14-.28-33.24-1.03l-3.28-1.81c29.39-2.34 58.55-6.22 87.25-13.07 15.11-3.67 29.79-7.74 44.15-13.76 15.79-6.32 30.64-14.36 43.74-25.29 7.83-6.4 14.95-14.49 19.3-23.67 4.19-8.83 5.41-18.63 3.69-28.24-1.98-11.45-7.81-20.97-15.1-29.8-10.18-11.86-21.99-20.28-34.07-29.92-12.09-9.29-24.45-18.96-35.31-29.67-7.68-7.37-14.83-15.58-20.25-24.77-5.67-9.8-8.41-21.06-6.39-32.33 2.3-14.17 11.12-26.69 20.57-37.11 6.54-7.92 14.19-14.45 22.03-21.03 9.62-7.82 20.4-14.49 30.9-21.06 7.38-4.54 14.81-8.96 22.64-12.67-14.67 2.98-28.77 7.95-42.48 13.91-23.69 10.86-46.94 25.01-65.77 43.16-7.31 6.96-13.2 15.25-17.7 24.28-4.57 9.21-7.1 19.19-5.94 29.52 1.58 14.05 8.53 26.3 17.39 37.04 7.13 8.8 15.44 15.69 23.64 23.39 10 9.13 20.55 18.32 29.33 28.63 7.12 8.9 13.79 19.54 16.38 30.74 2.61 10.98.06 22.77-6.63 31.83-7.3 10-18.67 16.96-29.46 22.64-19.34 9.93-40.75 16.54-61.96 21.07-21.13 4.31-42.66 6.59-64.23 6.72-18.21-.08-36.17-1.12-53.99-5.11-19.13-4.21-39.45-11.14-53.36-25.59C6.45 362.89 1.05 346.18.52 329c-.67-21.57 6.87-44.01 16.27-63.2 5.53-11.75 12.23-22.8 19.4-33.61 13.78-21.91 30.04-41.55 46.94-61.07 25.2-27.83 52.38-53.8 81.59-77.39 24.5-20.17 50.55-39.22 78.18-54.85C273.89 21.4 306.56 8.14 342 3.23 367.2-.13 393.26.21 417.82 7.3z" stroke="#15314a" fill="#15314a"/><path d="M67.28 265.82c-2.07 22.59.47 45.33 7.23 66.97 4.38 14.4 10.4 28.51 18.46 41.24 3.53 5.32 7.11 10.62 11.05 15.65 12.01.92 24.02 1.24 36.05.73 19.61-.63 38.85-3.87 57.94-8.26 14.48-3.72 28.84-8.34 42.45-14.57 9.65-4.64 19.43-10.48 26.76-18.39 5.33-5.63 7.71-13.52 6.52-21.18-1.55-9.43-6.31-17.21-12.23-24.52-15.6-19.08-35.63-32.28-51.33-50.65-11.54-13.33-21.32-28.06-23.1-46.07-1.34-12.91 1.42-26.28 7.38-37.79 4.39-8.28 9.19-15.95 16.27-22.23 5.36-5.18 11.15-9.74 17.06-14.24 14.23-10.57 30.51-18.61 46.75-25.62l5.58-2.12c-6.8-1.19-13.65-1.34-20.5-2.03-21.28-2.1-41.93.7-62.6 5.67-5.26 1.39-10.52 3.02-15.52 5.2-7.16 3.16-14.34 5.84-21.16 9.76-8.37 4.87-15.7 10.73-23.41 16.52-10.91 8.42-20.37 18.36-29 29.06-22.66 27.43-37.19 61.4-40.65 96.87z" fill="#dbe7f3"/>
<path d="M408.4 138.44c-3.26 1.03-5.65 4.05-5.3 7.57.03 5.28 6.35 8.5 10.79 5.9 4.16-2.46 4.49-8.65 1.11-11.89-1.81-1.58-4.28-2.07-6.6-1.58z" fill="#ffffff"/>
<path d="M300.76 46.06c11.52 4.86 23.11 9.75 34.21 15.52.93 13.96 2.51 27.8 2.1 41.83 7.27-5 14.69-9.94 22.5-14.05l17.66 19.95C390.99 93 404.04 76.07 417.4 59.44c8.02-10.33 16.7-20.53 23.97-31.37-24.44 2.38-48.86 5.19-73.18 8.62l-67.43 9.37z" fill="#96ab47"/>
<path d="M34.97 333.68c-3.49 1.14-7.02 2.3-10.44 3.62 3.44 1.09 6.9 2.07 10.39 2.99 1.16 3.93 2.3 7.86 3.29 11.85l3.4-11.52c3.42-1.36 6.84-2.56 10.38-3.59-3.37-.97-6.72-1.96-10.03-3.13-1.46-3.72-2.66-7.49-3.72-11.34-.93 3.75-1.95 7.48-3.27 11.12z" fill="#ffffff"/>
<path d="M235.879 65.39c3.28-1.515 6.605 1.645 4.765 5.053-1.44 2.639-5.485 2.13-6.377-.674-.743-1.503.149-3.656 1.611-4.378z" fill="#dbe7f3"/>
<ellipse cx="143.5" cy="326" rx="4.5" ry="5" fill="#96ab47"/>
</g></g></svg>